<?xml version="1.0" encoding="utf-8"?>
<svg version="1.1" id="Layer_1" xmlns="http://www.w3.org/2000/svg" xmlns:xlink="http://www.w3.org/1999/xlink" x="0px" y="0px" width="668" height="300" viewBox="0 0 668 300" style="enable-background:new 0 0 668 300;" xml:space="preserve">
<style type="text/css">
	.st0{fill:#F05F35;}
	.st1{clip-path:url(#SVGID_2_);fill:#B02925;}
	.st2{fill:#414141;}
	.st3{fill:#474747;}
	.st4{fill:#565656;}
	.st5{fill:#898989;}
	.st6{opacity:0.15;}
	.st7{clip-path:url(#SVGID_4_);fill:#010101;}
	.st8{fill:#343333;}
	.st9{fill:#010101;}
	.st10{fill:#464647;}
	.st11{fill:#1C223C;}
</style>
<g>
	<path class="st0" d="M238.42,162.6c-0.5-3.29-3.37-5.7-6.7-5.7h-42.12h-15.82c-3.03,0-5.05,3.09-3.86,5.87
		c2.07,4.85,3.11,10.13,3.11,15.84c0,6.58-1.38,12.59-4.13,18.03c-1.41,2.79,0.64,6.08,3.76,6.08h16.93
		c-2.98,7.4-7.51,14.16-13.62,20.27c-11.44,11.44-26.92,17.89-43.11,17.91c-16.9,0.02-31.32-5.94-43.27-17.88
		c-11.47-11.46-17.92-27.02-17.91-43.24c0.01-16.74,5.9-31.05,17.67-42.92c11.48-11.58,27.14-18.13,43.44-18.13
		c15.14,0,28.3,4.82,39.46,14.45c2.15,1.86,5.35,1.82,7.38-0.18c6.2-6.11,18.68-18.43,25.05-24.72c2.19-2.16,2.13-5.73-0.14-7.81
		c-20.07-18.37-43.99-27.56-71.78-27.56c-29.59,0-54.81,10.42-75.64,31.26c-20.84,20.84-31.26,46.05-31.26,75.64
		c0,29.59,10.42,54.8,31.26,75.64c20.84,20.84,46.05,31.26,75.64,31.26s54.8-10.42,75.64-31.26c15.24-15.24,24.88-32.82,28.97-52.74
		c1.51-7.32,2.28-14.95,2.28-22.91C239.69,173.9,239.26,168.16,238.42,162.6"/>
</g>
<g>
	<defs>
		<path id="SVGID_1_" d="M57.14,104.17c-20.84,20.84-31.26,46.05-31.26,75.64c0,29.59,10.42,54.8,31.26,75.64
			c20.84,20.84,46.05,31.26,75.64,31.26s54.8-10.42,75.64-31.26c15.24-15.23,24.88-32.82,28.97-52.73h-47.8
			c-2.98,7.4-7.51,14.16-13.62,20.27c-11.44,11.45-26.92,17.89-43.1,17.91c-16.9,0.02-31.32-5.94-43.27-17.88
			c-11.47-11.46-17.92-27.02-17.91-43.24c0.01-16.74,5.9-31.05,17.67-42.93c11.48-11.58,27.14-18.13,43.44-18.13
			c15.14,0,28.3,4.82,39.46,14.45c2.15,1.86,5.35,1.82,7.38-0.18c6.2-6.11,18.68-18.42,25.05-24.71c2.19-2.16,2.13-5.73-0.14-7.81
			c-20.07-18.37-44-27.56-71.78-27.56C103.2,72.91,77.98,83.33,57.14,104.17"/>
	</defs>
	<clipPath id="SVGID_2_">
		<use xlink:href="#SVGID_1_"  style="overflow:visible;"/>
	</clipPath>
	<path class="st1" d="M216.01,180.11c0,46.06-37.34,83.4-83.4,83.4s-83.4-37.34-83.4-83.4c0-46.06,37.34-83.4,83.4-83.4
		S216.01,134.04,216.01,180.11"/>
</g>
<g>
	<path class="st2" d="M197.63,71.35c0.01-0.17-0.26-0.22-0.33-0.06c-1.54,3.83-2.1,8.03-2.54,12.06c-0.38,3.49-0.87,7.66,0.7,10.98
		c0.1,0.21,0.45,0.1,0.42-0.11c-0.64-3.78-0.48-7.55-0.07-11.34C196.24,79.01,197.3,75.22,197.63,71.35"/>
	<path class="st2" d="M197.81,71.54c-0.75,3.91-0.86,7.89-1.32,11.82c-0.43,3.65-1.01,7.67,0.32,11.23
		c0.04,0.12,0.28,0.08,0.27-0.04c-0.07-1.87-0.32-3.71-0.29-5.58c0.03-1.85,0.25-3.71,0.46-5.55c0.45-3.95,0.51-7.91,0.81-11.86
		C198.08,71.41,197.84,71.4,197.81,71.54"/>
	<path class="st2" d="M201.31,81.83c-0.29-2.07-0.57-4.15-0.87-6.22c-0.2-1.38-0.23-2.81-1.11-4.02c-0.05-0.07-0.19-0.01-0.16,0.07
		c0.37,1.09,0.48,2.23,0.6,3.36c-0.19-1.38-0.46-2.74-0.86-4.1c-0.06-0.2-0.37-0.15-0.36,0.06c0.1,1.78,0.43,3.55,0.55,5.33
		c0.13,1.92,0.23,3.83,0.37,5.74c0.29,3.9,0.31,7.88,1.02,11.74c0.04,0.24,0.47,0.22,0.48-0.02c0.14-3.74-0.3-7.55-0.56-11.29
		c-0.13-1.83-0.23-3.64-0.4-5.45c0.2,1.63,0.38,3.27,0.61,4.9c0.26,1.93,0.52,3.87,0.68,5.81c0.18,2.1-0.13,4.23,0.27,6.31
		c0.05,0.25,0.52,0.25,0.53-0.02C202.17,89.92,201.88,85.91,201.31,81.83"/>
	<path class="st2" d="M202.74,80.94c-0.37-2.2-0.81-4.36-1.43-6.51c-0.35-1.2-0.48-2.84-1.67-3.65c-0.17-0.12-0.38,0.07-0.3,0.22
		c1.56,3.06,2,6.77,2.54,10.07c0.34,2.09,0.73,4.16,0.99,6.26c0.26,2.17,0.19,4.32,0.23,6.49c0,0.24,0.42,0.36,0.5,0.09
		c0.51-1.8,0.32-3.73,0.19-5.57C203.59,85.87,203.15,83.4,202.74,80.94"/>
	<path class="st3" d="M198.94,72.01c-0.03-0.11-0.21-0.08-0.19,0.03c0,0,0,0.01,0,0.01c-0.08-0.29-0.22-0.53-0.47-0.66
		c-0.15-0.08-0.39,0.05-0.28,0.21c0.49,0.75-0.07,2.53-0.17,3.35c-0.26,2.11-0.22,4.32-0.32,6.44c-0.1,2.23,0.04,4.48,0.12,6.71
		c0.07,1.98-0.16,4.17,0.57,6.07c0.08,0.22,0.51,0.15,0.5-0.08c-0.13-4.74-0.48-9.55-0.1-14.29c0.15-1.94,0.07-3.87,0.17-5.81
		c0.01-0.22,0.05-0.55,0.06-0.9c0.26,3.32,0.03,6.69,0.14,10.01c0.12,3.57,0.25,7.15,0.42,10.72c0.01,0.18,0.34,0.29,0.4,0.07
		c0.42-1.51,0.26-3.12,0.21-4.67c-0.07-2.02-0.08-4.04-0.16-6.06C199.69,79.47,200,75.63,198.94,72.01"/>
	<path class="st3" d="M202.73,89.01c-0.23-2.06-0.47-4.12-0.7-6.17c-0.43-3.77-0.71-8.26-2.75-11.68c-0.07-0.12-0.27-0.06-0.26,0.07
		c0.22,1.68,0.78,3.34,1.13,5.01c0.39,1.85,0.65,3.72,0.88,5.6c0.47,3.8,1.03,7.6,1.19,11.42c0.01,0.2,0.37,0.31,0.43,0.08
		C203,91.91,202.89,90.45,202.73,89.01"/>
	<path class="st3" d="M197.59,71.26c-0.16,1.68-0.93,3.26-1.29,4.91c-0.4,1.84-0.64,3.69-0.79,5.56c-0.3,3.61-0.99,7.69,0.05,11.25
		c0.04,0.14,0.29,0.14,0.3-0.01c0.16-1.87-0.14-3.75,0.04-5.62c0.18-1.85,0.26-3.71,0.4-5.56c0.15-1.86,0.39-3.72,0.78-5.56
		c0.35-1.64,1.08-3.29,0.81-4.98C197.87,71.1,197.61,71.11,197.59,71.26"/>
	<path class="st4" d="M200.35,76.77c-0.4-1.86-0.42-3.98-1.55-5.63c-0.09-0.13-0.38-0.09-0.32,0.09c0.07,0.23,0.14,0.46,0.21,0.69
		c-0.07-0.15-0.15-0.3-0.25-0.45c-0.01-0.02-0.04-0.03-0.05-0.04c-0.04-0.08-0.06-0.16-0.11-0.24c-0.07-0.12-0.31-0.07-0.27,0.07
		c0.32,1.26-0.51,2.67-0.85,3.88c-0.5,1.78-0.81,3.53-0.9,5.36c-0.17,3.82-0.4,7.82,0.24,11.62c0.03,0.15,0.31,0.15,0.31-0.01
		c-0.06-4.03,0.11-8.06,0.29-12.09c0.07-1.53,0.39-3.03,0.79-4.51c-0.2,2.53-0.38,5.06-0.46,7.59c-0.11,3.22-0.32,6.62,0.25,9.81
		c0.02,0.13,0.27,0.13,0.27-0.01c0.01-6.44,0.27-12.86,0.48-19.29c0.03-0.12,0.07-0.24,0.09-0.37c0.09,0.97,0.02,1.96,0.11,2.95
		c0.16,1.78,0.13,3.56,0.23,5.34c0.21,3.71-0.28,7.49,0.12,11.18c0.02,0.19,0.33,0.16,0.36-0.01c0.62-3.67,0.5-7.58,0.27-11.28
		c-0.13-2.01-0.21-4.05-0.27-6.06c-0.01-0.42-0.03-0.83-0.07-1.24c0.57,2.67,0.84,5.44,1.15,8.1c0.48,3.95,1.01,8.04,0.84,12.01
		c-0.01,0.21,0.36,0.3,0.42,0.08c0.46-1.56,0.21-3.21,0.07-4.8c-0.18-2.11-0.24-4.21-0.47-6.31
		C201.01,81.05,200.81,78.9,200.35,76.77"/>
	<path class="st2" d="M199.54,64.97c-0.09-0.17-0.38-0.09-0.36,0.1c0.09,0.64,0.07,1.23-0.05,1.87c-0.02,0.14-0.06,0.27-0.09,0.41
		c0.01-0.14,0.01-0.27,0.02-0.4c0.03-0.66,0.02-1.4-0.35-2c-0.09-0.14-0.3-0.07-0.29,0.08c0.05,0.71,0.04,1.39-0.06,2.1
		c-0.03,0.21-0.07,0.42-0.11,0.64c0-0.38-0.02-0.76-0.01-1.12c0.01-0.6,0.01-1.18-0.15-1.77c-0.05-0.19-0.4-0.2-0.4,0.01
		c-0.02,0.66-0.03,1.33-0.08,1.99c0,0,0,0.01,0,0.01c-0.29-2.19-0.85-4.39-1.32-6.53c-0.31-1.42-0.64-2.82-0.87-4.25
		c-0.16-1.01-0.36-2.04-1.18-2.82c-0.12-0.11-0.39-0.03-0.33,0.14c0.77,2.28,0.96,4.74,1.48,7.07c0.51,2.31,0.88,4.64,1.31,6.96
		c-0.08-0.22-0.16-0.43-0.24-0.64c-0.24-0.66-0.44-1.34-0.7-1.99c-0.06-0.14-0.3-0.09-0.31,0.05c-0.07,0.63,0.11,1.25,0.29,1.86
		c0.07,0.26,0.14,0.53,0.22,0.81c-0.12-0.19-0.22-0.37-0.31-0.56c-0.33-0.75-0.49-1.55-0.84-2.29c-0.07-0.16-0.36-0.11-0.37,0.06
		c-0.03,0.82,0.19,1.66,0.45,2.44c0.22,0.66,0.54,1.63,1.3,1.94c0.22,0.09,0.5-0.12,0.44-0.33c-0.01-0.03-0.03-0.07-0.04-0.1
		c0.13,0.01,0.27-0.06,0.28-0.2c0-0.04-0.01-0.07,0-0.11c0.05,0.26,0.09,0.52,0.15,0.77c0.08,0.37,0.79,0.37,0.78-0.03
		c0-0.12-0.01-0.23-0.02-0.35c0.12,0.08,0.3,0.02,0.36-0.1c0,0.06-0.01,0.12,0,0.19c0.02,0.3,0.52,0.3,0.63,0.05
		c0.06-0.14,0.1-0.28,0.14-0.42c0.06,0.22,0.41,0.2,0.51,0.01c0.28-0.52,0.3-1.19,0.36-1.75C199.84,66.16,199.84,65.53,199.54,64.97
		"/>
	<path class="st3" d="M196.99,67.01c-0.12-0.59-0.14-1.18-0.21-1.78c-0.02-0.18-0.3-0.14-0.34,0.01c-0.14,0.61-0.11,1.23-0.06,1.85
		c0.01,0.17,0.03,0.35,0.05,0.54c-0.12-0.21-0.25-0.41-0.36-0.61c-0.32-0.62-0.53-1.28-0.66-1.94c-0.03-0.18-0.36-0.17-0.37,0.01
		c-0.01,0.59,0.06,1.16,0.29,1.73c0.23,0.59,0.46,1.32,1.02,1.72c0.13,0.09,0.27,0.01,0.32-0.1c0.06,0.1,0.12,0.2,0.21,0.28
		c0.14,0.14,0.39,0.07,0.42-0.12C197.38,68.1,197.1,67.52,196.99,67.01"/>
	<path class="st3" d="M198.9,65.4c-0.1-0.21-0.43-0.13-0.47,0.07c-0.07,0.4-0.11,0.81-0.15,1.22c-0.03-0.49-0.12-0.98-0.24-1.46
		c-0.04-0.18-0.36-0.18-0.37,0.01c-0.03,0.6-0.04,1.2-0.07,1.79c-0.03,0.51-0.29,1.1-0.13,1.59c0.07,0.22,0.33,0.26,0.5,0.09
		c0.08-0.08,0.14-0.17,0.18-0.27c0.01,0.05,0.02,0.1,0.04,0.15c0.1,0.22,0.49,0.25,0.63,0.05c0.32-0.48,0.25-1.11,0.28-1.65
		C199.15,66.48,199.14,65.91,198.9,65.4"/>
	<path class="st4" d="M197.07,68.47c-0.66-0.96-0.88-2.04-0.86-3.16c0-0.18-0.3-0.21-0.33-0.02c-0.13,1-0.15,2.66,0.75,3.42
		C196.83,68.87,197.23,68.7,197.07,68.47"/>
	<path class="st4" d="M198.01,65.46c-0.04,0.56-0.18,1.1-0.28,1.66c-0.01-0.11-0.02-0.22-0.03-0.33c-0.04-0.51-0.05-1.03-0.25-1.51
		c-0.08-0.19-0.37-0.1-0.4,0.06c-0.1,0.48-0.06,0.99-0.07,1.48c-0.01,0.45-0.1,0.93,0.04,1.36c0.09,0.28,0.42,0.32,0.61,0.15
		c0.03,0.15,0.08,0.29,0.18,0.41c0.14,0.16,0.46,0.1,0.53-0.08c0.16-0.45,0.03-1,0.07-1.47c0.05-0.58,0.1-1.16,0.05-1.74
		C198.42,65.23,198.02,65.25,198.01,65.46"/>
	<path class="st2" d="M199.66,68.57c-1.12-0.58-2.88,0.04-3.9,0.53c-0.13,0.06-0.12,0.19-0.03,0.25c-0.23,0.23-0.36,0.53-0.32,0.93
		c0.07,0.61,0.39,1.37,1.12,1.59c0.83,0.26,1.64-0.04,2.41-0.33c0.65-0.25,1.42-0.71,1.49-1.39
		C200.5,69.54,200.29,68.9,199.66,68.57"/>
	<path class="st3" d="M199.25,68.56c-1.05,0.19-2.11,0.19-3.03,0.74c-0.22,0.14,0.02,0.4,0.24,0.33c0.35-0.11,0.72-0.2,1.09-0.27
		c-0.39,0.14-0.79,0.26-1.2,0.33c-0.47,0.08-0.43,0.67,0.04,0.72c0.17,0.02,0.33,0.02,0.49,0c-0.11,0.05-0.22,0.1-0.33,0.15
		c-0.42,0.22-0.26,0.79,0.26,0.74c0.49-0.05,1.09-0.38,1.64-0.48c0.05,0.16,0.24,0.29,0.44,0.26c0.31-0.05,0.47-0.17,0.68-0.38
		c0.2-0.2,0.02-0.51-0.22-0.6c-0.07-0.03-0.15-0.04-0.22-0.05c0.04-0.04,0.09-0.08,0.12-0.13c0.13-0.18,0.06-0.42-0.14-0.53
		c0.15-0.09,0.3-0.17,0.44-0.27C199.82,68.91,199.6,68.49,199.25,68.56"/>
	<path class="st4" d="M199.04,68.72c-0.36,0-0.66,0.12-0.99,0.22c-0.5,0.16-1.03,0.3-1.57,0.3c-0.13,0-0.15,0.16-0.02,0.18
		c0.84,0.11,1.95-0.08,2.66-0.5C199.21,68.87,199.15,68.72,199.04,68.72"/>
	<path class="st4" d="M199.22,69.24c-0.49,0.13-0.92,0.35-1.43,0.44c-0.46,0.08-0.93,0.08-1.4,0.12c-0.19,0.01-0.15,0.24,0.01,0.27
		c0.93,0.17,2.32,0.07,3.05-0.52C199.63,69.4,199.44,69.18,199.22,69.24"/>
	<path class="st4" d="M199.52,69.96c-0.36-0.06-0.78,0.23-1.11,0.34c-0.57,0.18-1.17,0.21-1.77,0.09c-0.14-0.03-0.3,0.11-0.18,0.22
		c0.43,0.38,1.07,0.38,1.64,0.29c0.47-0.07,1.44-0.25,1.59-0.7C199.74,70.08,199.65,69.98,199.52,69.96"/>
	<path class="st4" d="M199.48,70.65c-0.32,0.16-0.61,0.35-0.96,0.49c-0.4,0.15-0.85,0.25-1.28,0.29c-0.17,0.01-0.16,0.25,0.01,0.26
		c0.81,0.02,1.96-0.18,2.51-0.75C199.9,70.79,199.66,70.56,199.48,70.65"/>
	<path class="st5" d="M199.75,74.65c-0.03-0.12-0.23-0.09-0.21,0.03c0.61,3.94,1.21,7.89,1.87,11.83c0.01,0.04,0.08,0.04,0.08,0
		C201.33,82.56,200.75,78.5,199.75,74.65"/>
	<path class="st5" d="M197.7,75.26c-0.83,4.91-1.54,10-0.8,14.96c0.01,0.08,0.17,0.08,0.17-0.01c-0.19-5.02,0.39-9.94,0.74-14.94
		C197.81,75.2,197.71,75.2,197.7,75.26"/>
	<path class="st5" d="M198.82,76.43c-0.08,4.22,0.51,8.43,0.1,12.64c-0.01,0.08,0.14,0.09,0.15,0.01c0.54-4.22,0.03-8.42-0.11-12.64
		C198.96,76.36,198.83,76.35,198.82,76.43"/>
	<path class="st5" d="M199.29,69.91c-0.66,0.25-1.2,0.6-1.94,0.66c-0.05,0-0.04,0.07,0,0.07c0.75,0.06,1.48-0.13,2.06-0.56
		C199.53,70.01,199.42,69.86,199.29,69.91"/>
	<path class="st5" d="M199.06,69.37c-0.52,0.32-1.15,0.46-1.78,0.39c-0.04,0-0.04,0.05,0,0.06c0.65,0.12,1.35,0.02,1.89-0.34
		C199.25,69.42,199.14,69.32,199.06,69.37"/>
	<path class="st5" d="M196.25,66.37c-0.02-0.1-0.17-0.07-0.17,0.02c0.05,0.67,0.32,1.38,0.81,1.91c0.06,0.07,0.18,0,0.14-0.08
		C196.73,67.6,196.36,67.05,196.25,66.37"/>
	<path class="st5" d="M197.53,66.2c-0.03-0.1-0.21-0.1-0.22,0.01c-0.02,0.66,0.04,1.41,0.31,2.03c0.04,0.08,0.19,0.06,0.19-0.03
		C197.79,67.55,197.69,66.84,197.53,66.2"/>
	<path class="st5" d="M198.54,66.19c-0.06,0.68-0.04,1.35-0.19,2.03c-0.01,0.04,0.07,0.06,0.08,0.02c0.19-0.66,0.28-1.35,0.25-2.03
		C198.68,66.12,198.54,66.1,198.54,66.19"/>
</g>
<g>
	<g class="st6">
		<g>
			<defs>
				<rect id="SVGID_3_" x="43.31" y="-8" width="190.17" height="114.49"/>
			</defs>
			<clipPath id="SVGID_4_">
				<use xlink:href="#SVGID_3_"  style="overflow:visible;"/>
			</clipPath>
			<path class="st7" d="M169.3,57.08l-43.68,2.2l-46.36,2.34l0.07,32.15c1.26,8.29,24.59,13.88,52.09,12.49
				c0.45-0.02,0.89-0.05,1.34-0.08c26.86-1.57,47.43-9.28,46.19-17.43L169.3,57.08z"/>
			<polygon class="st7" points="205.25,61.46 95.82,106.49 43.77,56.27 43.31,53.23 151.13,24.54 204.79,58.43 			"/>
			<polygon class="st7" points="150.66,21.5 43.31,53.23 95.36,103.46 204.79,58.43 			"/>
		</g>
	</g>
	<path class="st8" d="M165.59,53.36l-43.68,2.2l-46.36,2.34l0.07,32.15c1.26,8.29,24.59,13.88,52.09,12.49
		c0.45-0.02,0.89-0.05,1.34-0.08c26.86-1.57,47.43-9.28,46.19-17.43L165.59,53.36z"/>
	<polygon class="st9" points="201.54,57.75 92.11,102.78 40.06,52.56 39.59,49.52 147.42,20.82 201.08,54.71 	"/>
	<polygon class="st8" points="146.95,17.79 39.59,49.52 91.65,99.74 201.08,54.71 	"/>
</g>
<g>
	<path d="M126.24,207.7c-0.17-0.08-0.35-0.16-0.52-0.24c-1.03-0.47-1.66-1.56-1.52-2.63c0.15-1.15,0.97-2.03,2.11-2.25
		c0.17-0.03,0.34-0.06,0.51-0.06c3.16,0,6.32-0.03,9.48,0.01c1.99,0.03,3.19,1.88,2.42,3.62c-0.36,0.81-1.05,1.22-1.82,1.55
		C133.36,207.7,129.8,207.7,126.24,207.7z M131.59,204.56c-0.5,0-1,0-1.49,0c-1.08,0-2.16-0.02-3.24,0.02
		c-0.2,0.01-0.39,0.29-0.58,0.45c0.19,0.17,0.37,0.35,0.57,0.5c0.06,0.04,0.17,0.01,0.25,0.01c2.99,0,5.97,0,8.96,0
		c0.38,0,0.81,0,0.79-0.52c-0.01-0.47-0.42-0.46-0.78-0.46C134.57,204.56,133.08,204.56,131.59,204.56z"/>
	<path d="M131.61,195.11c-2.49,0-4.99,0-7.48,0c-1.11,0-1.37-0.34-1.43-1.44c-0.08-1.4-0.18-2.81-0.43-4.19
		c-0.35-1.88-1.34-3.4-2.7-4.78c-4.07-4.13-5.67-9.13-4.81-14.87c1.09-7.27,7.12-13.17,14.53-14.21c6.49-0.91,13.34,2.21,16.78,7.81
		c4.3,6.99,3.4,15.46-2.43,21.23c-2.46,2.43-3.03,5.39-3.14,8.59c-0.01,0.22,0.01,0.43,0,0.65c-0.06,0.86-0.41,1.21-1.27,1.21
		C136.69,195.11,134.15,195.11,131.61,195.11z M138.37,192.95c0.12-1,0.2-1.99,0.36-2.97c0.4-2.42,1.25-4.66,3.05-6.4
		c3.79-3.67,5.35-8.12,4.62-13.32c-0.62-4.41-2.86-7.88-6.57-10.3c-6.36-4.14-14.38-3.05-19.49,2.54c-5.3,5.8-5.03,15.22,0.65,20.64
		c1.75,1.67,2.82,3.66,3.29,5.99c0.25,1.25,0.39,2.52,0.58,3.82C129.34,192.95,133.84,192.95,138.37,192.95z"/>
	<path d="M131.51,201.45c-2.3,0-4.59,0.02-6.89-0.01c-1.25-0.02-2.27-0.99-2.43-2.2c-0.16-1.26,0.54-2.41,1.74-2.78
		c0.37-0.11,0.77-0.15,1.15-0.16c4.33-0.01,8.67-0.01,13,0c1.65,0,2.79,0.97,2.88,2.38c0.09,1.55-1.05,2.75-2.69,2.77
		C136.02,201.47,133.76,201.46,131.51,201.45C131.51,201.45,131.51,201.45,131.51,201.45z M131.51,198.32c-2.19,0-4.38,0-6.57,0
		c-0.35,0-0.68,0.03-0.68,0.49c0,0.44,0.33,0.5,0.68,0.52c0.13,0,0.26,0,0.39,0c4.16,0,8.32,0,12.49,0c0.22,0,0.44,0.02,0.65-0.04
		c0.37-0.1,0.51-0.4,0.28-0.69c-0.14-0.18-0.48-0.27-0.73-0.27C135.85,198.32,133.68,198.32,131.51,198.32z"/>
	<path d="M115.23,145.71c0.36,0.27,0.72,0.43,0.9,0.7c1.26,1.91,2.49,3.85,3.71,5.79c0.39,0.62,0.25,1.26-0.3,1.59
		c-0.52,0.32-1.08,0.17-1.49-0.46c-1.23-1.91-2.47-3.81-3.65-5.75c-0.19-0.31-0.2-0.84-0.07-1.2
		C114.43,146.12,114.87,145.97,115.23,145.71z"/>
	<path d="M159.32,158.25c-0.12,0.15-0.31,0.56-0.62,0.73c-2.02,1.13-4.06,2.22-6.1,3.3c-0.58,0.31-1.16,0.16-1.43-0.3
		c-0.31-0.52-0.16-1.18,0.44-1.5c2.05-1.13,4.1-2.24,6.17-3.32C158.54,156.75,159.31,157.22,159.32,158.25z"/>
	<path d="M132.61,145.72c0,1.1,0.01,2.21,0,3.31c-0.01,0.79-0.39,1.25-1.01,1.27c-0.64,0.02-1.07-0.48-1.07-1.27
		c-0.01-2.23-0.01-4.46,0-6.69c0-0.75,0.43-1.25,1.03-1.25c0.6,0,1.03,0.51,1.04,1.25C132.62,143.47,132.61,144.6,132.61,145.72z"/>
	<path d="M104.71,156.9c0.44,0.17,0.71,0.24,0.95,0.37c1.9,1.02,3.8,2.06,5.69,3.1c0.71,0.39,0.95,1.03,0.62,1.6
		c-0.3,0.52-0.9,0.62-1.6,0.24c-1.96-1.06-3.91-2.13-5.86-3.19c-0.48-0.26-0.84-0.66-0.61-1.2
		C104.05,157.45,104.44,157.19,104.71,156.9z"/>
	<path d="M149.55,147.06c-0.17,0.38-0.25,0.63-0.38,0.84c-1.26,1.91-2.53,3.82-3.81,5.73c-0.4,0.6-0.93,0.73-1.44,0.4
		c-0.51-0.34-0.63-0.89-0.25-1.48c1.28-1.95,2.58-3.9,3.88-5.83c0.28-0.41,0.69-0.67,1.17-0.42
		C149.04,146.45,149.28,146.79,149.55,147.06z"/>
	<path d="M144.85,172.49c0,0.22,0.02,0.43,0,0.65c-0.05,0.57-0.36,0.92-0.93,0.99c-0.54,0.06-1-0.29-1.09-0.88
		c-0.09-0.55-0.08-1.12-0.16-1.68c-0.78-5.4-5.17-9.39-10.61-9.65c-1.03-0.05-1.55-0.43-1.5-1.12c0.05-0.69,0.59-1,1.63-0.95
		C139.05,160.14,144.7,165.78,144.85,172.49z"/>
</g>
<g>
	<path class="st10" d="M339.96,102.53v7.57c0,9.12-2.93,16.65-8.8,22.61c-5.87,5.96-13.57,8.93-23.11,8.93
		c-9.97,0-18.11-3.17-24.43-9.52c-6.32-6.35-9.48-14.27-9.48-23.75c0-9.48,3.16-17.43,9.48-23.84c6.32-6.41,14.22-9.62,23.7-9.62
		c5.95,0,11.41,1.34,16.36,4.01c4.96,2.67,8.86,6.29,11.71,10.85l-15.5,8.84c-2.55-3.89-6.63-5.84-12.21-5.84
		c-4.56,0-8.25,1.46-11.08,4.38c-2.82,2.92-4.24,6.69-4.24,11.31c0,4.38,1.31,8.19,3.92,11.44c2.61,3.25,6.66,4.88,12.13,4.88
		c6.32,0,10.55-2.25,12.67-6.75H307.5v-15.5H339.96z"/>
	<rect x="349.99" y="76.37" class="st10" width="18.23" height="63.82"/>
	<path class="st10" d="M413.44,140.09l-10.12-20.06h-4.56v20.06h-18.23V76.28h25.53c6.99,0,12.76,2.05,17.32,6.15
		c4.56,4.1,6.84,9.53,6.84,16.27c0,3.77-0.87,7.17-2.6,10.21c-1.73,3.04-4.15,5.5-7.25,7.38l12.58,23.8H413.44z M398.76,93.05v11.85
		h6.93c1.94,0.06,3.48-0.42,4.6-1.46c1.12-1.03,1.69-2.49,1.69-4.38c0-1.89-0.56-3.36-1.69-4.42c-1.13-1.06-2.66-1.59-4.6-1.59
		H398.76z"/>
	<polygon class="st10" points="475.34,76.37 493.57,76.37 493.57,140.18 478.98,140.18 458.93,111.01 458.93,140.18 440.69,140.18 
		440.69,76.37 455.28,76.37 475.34,105.54 	"/>
	<path class="st10" d="M542.8,140.18l-2.19-8.21h-18.42l-2.19,8.21h-19.6l20.33-63.82h21.33l20.33,63.82H542.8z M526.11,117.39
		h10.58l-5.29-19.6L526.11,117.39z"/>
	<path class="st10" d="M602.14,140.09l-10.12-20.06h-4.56v20.06h-18.23V76.28h25.53c6.99,0,12.76,2.05,17.32,6.15
		c4.56,4.1,6.84,9.53,6.84,16.27c0,3.77-0.87,7.17-2.6,10.21c-1.73,3.04-4.15,5.5-7.25,7.38l12.58,23.8H602.14z M587.47,93.05v11.85
		h6.93c1.94,0.06,3.48-0.42,4.6-1.46c1.12-1.03,1.69-2.49,1.69-4.38c0-1.89-0.56-3.36-1.69-4.42c-1.12-1.06-2.66-1.59-4.6-1.59
		H587.47z"/>
</g>
<g>
	<path class="st11" d="M306.36,178.7h9.6v3.63h-14.12v-21.94h4.52V178.7z"/>
	<path class="st11" d="M331.75,172.82h-8.68v5.88h10.19v3.63h-14.7v-21.94h14.67v3.66h-10.16v5.23h8.68V172.82z"/>
	<path class="st11" d="M348.3,177.81h-7.93l-1.51,4.52h-4.8l8.17-21.94h4.19l8.21,21.94h-4.81L348.3,177.81z M341.59,174.15h5.49
		l-2.76-8.21L341.59,174.15z"/>
	<path class="st11" d="M364.79,174.3h-3.6v8.03h-4.52v-21.94h8.15c2.59,0,4.59,0.58,5.99,1.73c1.41,1.16,2.11,2.79,2.11,4.9
		c0,1.5-0.32,2.75-0.97,3.74c-0.65,1-1.63,1.8-2.94,2.39l4.74,8.96v0.21h-4.85L364.79,174.3z M361.19,170.64h3.65
		c1.14,0,2.02-0.29,2.64-0.86c0.62-0.58,0.93-1.37,0.93-2.39c0-1.04-0.3-1.85-0.88-2.44s-1.49-0.89-2.7-0.89h-3.63V170.64z"/>
	<path class="st11" d="M394.2,182.33h-4.52l-8.8-14.43v14.43h-4.52v-21.94h4.52l8.81,14.46v-14.46h4.51V182.33z"/>
	<path class="st11" d="M402.96,182.33h-4.52v-21.94h4.52V182.33z"/>
	<path class="st11" d="M424.99,182.33h-4.52l-8.8-14.43v14.43h-4.52v-21.94h4.52l8.81,14.46v-14.46h4.51V182.33z"/>
	<path class="st11" d="M446.29,179.56c-0.81,0.97-1.96,1.73-3.45,2.27c-1.49,0.54-3.13,0.81-4.94,0.81c-1.9,0-3.56-0.41-4.99-1.24
		c-1.43-0.83-2.54-2.03-3.32-3.61s-1.18-3.43-1.2-5.56v-1.49c0-2.19,0.37-4.09,1.11-5.69c0.74-1.6,1.8-2.83,3.2-3.68
		c1.39-0.85,3.02-1.27,4.89-1.27c2.6,0,4.63,0.62,6.1,1.86c1.47,1.24,2.34,3.05,2.61,5.42h-4.4c-0.2-1.26-0.64-2.17-1.33-2.76
		c-0.69-0.58-1.63-0.87-2.84-0.87c-1.54,0-2.71,0.58-3.51,1.73c-0.8,1.15-1.21,2.87-1.22,5.15v1.4c0,2.3,0.44,4.04,1.31,5.21
		c0.87,1.18,2.16,1.76,3.84,1.76c1.7,0,2.91-0.36,3.63-1.09v-3.78h-4.11v-3.33h8.63V179.56z"/>
	<path class="st11" d="M470.02,177.81h-7.93l-1.51,4.52h-4.8l8.17-21.94h4.19l8.21,21.94h-4.81L470.02,177.81z M463.32,174.15h5.49
		l-2.76-8.21L463.32,174.15z"/>
	<path class="st11" d="M495.62,175.02c-0.17,2.36-1.04,4.22-2.61,5.57c-1.57,1.36-3.64,2.04-6.22,2.04c-2.81,0-5.02-0.95-6.64-2.84
		c-1.61-1.89-2.42-4.49-2.42-7.8v-1.34c0-2.11,0.37-3.97,1.12-5.57c0.74-1.61,1.8-2.84,3.19-3.7c1.38-0.86,2.98-1.29,4.81-1.29
		c2.53,0,4.57,0.68,6.12,2.03c1.55,1.36,2.44,3.26,2.68,5.71h-4.52c-0.11-1.42-0.5-2.44-1.18-3.08c-0.68-0.64-1.71-0.96-3.1-0.96
		c-1.51,0-2.63,0.54-3.38,1.62c-0.75,1.08-1.14,2.75-1.16,5.02v1.66c0,2.37,0.36,4.1,1.08,5.2c0.72,1.1,1.85,1.64,3.4,1.64
		c1.4,0,2.44-0.32,3.13-0.96s1.08-1.63,1.18-2.96H495.62z"/>
	<path class="st11" d="M510.98,177.81h-7.93l-1.51,4.52h-4.8l8.17-21.94h4.19l8.21,21.94h-4.81L510.98,177.81z M504.27,174.15h5.49
		l-2.76-8.21L504.27,174.15z"/>
	<path class="st11" d="M519.35,182.33v-21.94h6.75c1.93,0,3.65,0.43,5.18,1.3c1.52,0.87,2.71,2.11,3.56,3.71
		c0.85,1.6,1.28,3.42,1.28,5.46v1.01c0,2.04-0.42,3.85-1.26,5.44s-2.03,2.82-3.55,3.69c-1.53,0.87-3.25,1.32-5.17,1.33H519.35z
		 M523.87,164.06v14.65h2.19c1.77,0,3.12-0.58,4.06-1.73s1.41-2.81,1.43-4.96v-1.16c0-2.23-0.46-3.92-1.39-5.07
		c-0.92-1.15-2.28-1.72-4.06-1.72H523.87z"/>
	<path class="st11" d="M552.6,172.82h-8.68v5.88h10.19v3.63h-14.7v-21.94h14.67v3.66h-10.16v5.23h8.68V172.82z"/>
	<path class="st11" d="M562.67,160.39l5.64,15.91l5.6-15.91h5.93v21.94h-4.53v-6l0.45-10.35l-5.92,16.35h-3.1L560.83,166l0.45,10.34
		v6h-4.52v-21.94H562.67z"/>
	<path class="st11" d="M591.36,170.28l4.57-9.88h4.94l-7.2,13.98v7.95h-4.6v-7.95l-7.2-13.98h4.95L591.36,170.28z"/>
	<rect x="602.02" y="171.3" class="st11" width="32.81" height="4.02"/>
	<rect x="260.95" y="171.3" class="st11" width="32.81" height="4.02"/>
</g>
<g>
	<path class="st10" d="M275.81,230.39v3.83h-14.62v-24.96h4.64v21.13H275.81z"/>
	<path class="st10" d="M280.87,225.91c0.07,0.91,0.23,1.69,0.48,2.35c0.25,0.66,0.59,1.21,1,1.64c0.42,0.43,0.91,0.75,1.48,0.97
		c0.57,0.21,1.2,0.32,1.89,0.32s1.29-0.08,1.79-0.24c0.5-0.16,0.93-0.34,1.31-0.54c0.37-0.2,0.7-0.37,0.98-0.54
		c0.29-0.16,0.56-0.24,0.82-0.24c0.36,0,0.62,0.13,0.79,0.4l1.23,1.55c-0.47,0.55-1.01,1.02-1.59,1.39c-0.59,0.37-1.2,0.67-1.84,0.9
		c-0.64,0.22-1.29,0.38-1.95,0.47c-0.66,0.09-1.3,0.14-1.92,0.14c-1.23,0-2.37-0.2-3.43-0.61c-1.06-0.41-1.98-1.01-2.76-1.81
		c-0.78-0.8-1.4-1.79-1.84-2.97c-0.45-1.18-0.67-2.55-0.67-4.1c0-1.21,0.2-2.34,0.59-3.41c0.39-1.07,0.95-1.99,1.68-2.78
		c0.73-0.79,1.62-1.41,2.68-1.87c1.05-0.46,2.24-0.69,3.56-0.69c1.12,0,2.15,0.18,3.09,0.54c0.94,0.36,1.75,0.88,2.43,1.56
		c0.68,0.68,1.21,1.53,1.6,2.52c0.39,0.99,0.58,2.13,0.58,3.41c0,0.64-0.07,1.08-0.21,1.3c-0.14,0.22-0.4,0.34-0.79,0.34H280.87z
		 M289,223.33c0-0.55-0.08-1.07-0.24-1.56c-0.16-0.49-0.39-0.92-0.7-1.29c-0.31-0.37-0.7-0.66-1.18-0.87
		c-0.48-0.21-1.04-0.32-1.67-0.32c-1.23,0-2.2,0.35-2.9,1.05c-0.71,0.7-1.16,1.7-1.36,2.99H289z"/>
	<path class="st10" d="M295.61,218.98c2.04-1.86,4.49-2.8,7.35-2.8c1.04,0,1.96,0.17,2.78,0.51s1.51,0.81,2.07,1.42
		c0.56,0.6,0.99,1.33,1.29,2.17c0.3,0.84,0.44,1.76,0.44,2.76v11.19h-1.93c-0.4,0-0.71-0.06-0.93-0.18
		c-0.22-0.12-0.39-0.36-0.52-0.73l-0.38-1.28c-0.45,0.4-0.88,0.76-1.31,1.06c-0.43,0.3-0.87,0.56-1.33,0.77
		c-0.46,0.21-0.95,0.36-1.47,0.47c-0.53,0.11-1.11,0.16-1.74,0.16c-0.74,0-1.44-0.1-2.07-0.3s-1.18-0.51-1.64-0.91
		c-0.46-0.4-0.82-0.9-1.07-1.5c-0.26-0.6-0.38-1.29-0.38-2.09c0-0.45,0.08-0.89,0.23-1.34c0.15-0.44,0.39-0.87,0.73-1.27
		c0.34-0.4,0.78-0.78,1.32-1.14c0.54-0.36,1.21-0.67,1.99-0.93c0.78-0.26,1.7-0.48,2.75-0.65c1.05-0.17,2.25-0.27,3.59-0.3v-1.04
		c0-1.19-0.25-2.06-0.76-2.63c-0.51-0.57-1.24-0.85-2.19-0.85c-0.69,0-1.27,0.08-1.72,0.24c-0.46,0.16-0.85,0.34-1.2,0.55
		c-0.35,0.2-0.66,0.38-0.94,0.54s-0.6,0.24-0.94,0.24c-0.3,0-0.55-0.08-0.76-0.23c-0.21-0.16-0.37-0.34-0.5-0.55L295.61,218.98z
		 M305.38,226.66c-1.23,0.06-2.27,0.16-3.11,0.32c-0.84,0.16-1.52,0.35-2.02,0.6c-0.51,0.24-0.87,0.52-1.09,0.85
		c-0.22,0.32-0.33,0.67-0.33,1.05c0,0.75,0.22,1.28,0.66,1.61c0.44,0.32,1.02,0.48,1.74,0.48c0.87,0,1.63-0.16,2.27-0.47
		c0.64-0.32,1.27-0.8,1.87-1.44V226.66z"/>
	<path class="st10" d="M317.57,219.59c0.55-1.06,1.21-1.89,1.97-2.49c0.76-0.6,1.66-0.9,2.69-0.9c0.82,0,1.47,0.18,1.97,0.54
		l-0.28,3.19c-0.06,0.21-0.14,0.35-0.25,0.44c-0.11,0.09-0.26,0.13-0.44,0.13c-0.17,0-0.43-0.03-0.77-0.09
		c-0.34-0.06-0.67-0.09-0.99-0.09c-0.47,0-0.89,0.07-1.26,0.21s-0.7,0.34-0.99,0.6c-0.3,0.26-0.55,0.57-0.78,0.94
		c-0.23,0.37-0.44,0.79-0.63,1.26v10.91h-4.27v-17.71h2.5c0.44,0,0.74,0.08,0.91,0.23c0.18,0.16,0.29,0.43,0.35,0.84L317.57,219.59z
		"/>
	<path class="st10" d="M330.42,218.69c0.36-0.36,0.73-0.69,1.13-0.99c0.4-0.31,0.81-0.57,1.26-0.78c0.45-0.21,0.92-0.38,1.43-0.5
		c0.51-0.12,1.06-0.18,1.66-0.18c0.96,0,1.82,0.16,2.57,0.49c0.75,0.33,1.37,0.79,1.87,1.38c0.5,0.59,0.88,1.3,1.14,2.12
		c0.26,0.82,0.39,1.73,0.39,2.72v11.27h-4.26v-11.27c0-1.08-0.25-1.92-0.74-2.51c-0.5-0.59-1.25-0.89-2.26-0.89
		c-0.74,0-1.43,0.17-2.07,0.5c-0.65,0.33-1.26,0.79-1.83,1.36v12.81h-4.27v-17.71h2.61c0.55,0,0.91,0.26,1.09,0.78L330.42,218.69z"
		/>
	<path class="st10" d="M376.39,234.22h-4.66v-24.96h4.66V234.22z"/>
	<path class="st10" d="M381.05,234.22v-17.71h2.61c0.55,0,0.91,0.26,1.09,0.78l0.28,1.31c0.31-0.34,0.64-0.66,0.97-0.95
		c0.34-0.29,0.7-0.54,1.09-0.74c0.38-0.21,0.8-0.37,1.24-0.49c0.44-0.12,0.93-0.18,1.46-0.18c1.12,0,2.04,0.3,2.75,0.91
		c0.72,0.6,1.26,1.41,1.61,2.41c0.28-0.59,0.62-1.09,1.04-1.51c0.42-0.42,0.87-0.76,1.37-1.03c0.49-0.26,1.02-0.46,1.58-0.59
		c0.56-0.13,1.12-0.19,1.68-0.19c0.98,0,1.85,0.15,2.61,0.45c0.76,0.3,1.4,0.74,1.91,1.31c0.52,0.58,0.91,1.28,1.18,2.11
		c0.27,0.83,0.41,1.78,0.41,2.85v11.27h-4.26v-11.27c0-1.13-0.25-1.98-0.74-2.55c-0.5-0.57-1.22-0.85-2.18-0.85
		c-0.44,0-0.84,0.08-1.22,0.23c-0.38,0.15-0.7,0.36-0.98,0.65c-0.28,0.28-0.5,0.64-0.66,1.06c-0.16,0.42-0.24,0.91-0.24,1.47v11.27
		h-4.28v-11.27c0-1.19-0.24-2.05-0.72-2.59c-0.48-0.54-1.18-0.81-2.1-0.81c-0.62,0-1.2,0.15-1.73,0.46
		c-0.54,0.31-1.04,0.72-1.49,1.25v12.96H381.05z"/>
	<path class="st10" d="M414.01,218.93c0.72-0.82,1.55-1.48,2.47-1.98c0.92-0.51,2-0.76,3.25-0.76c0.96,0,1.85,0.2,2.65,0.6
		c0.8,0.4,1.49,0.99,2.07,1.75c0.58,0.77,1.03,1.71,1.35,2.83c0.32,1.12,0.48,2.41,0.48,3.86c0,1.32-0.18,2.55-0.54,3.68
		c-0.36,1.13-0.86,2.11-1.53,2.93c-0.66,0.83-1.46,1.47-2.4,1.94c-0.94,0.46-1.99,0.7-3.15,0.7c-0.99,0-1.83-0.15-2.54-0.46
		c-0.7-0.3-1.33-0.73-1.88-1.27v7.25h-4.27v-23.49h2.61c0.55,0,0.91,0.26,1.09,0.78L414.01,218.93z M414.23,229.63
		c0.48,0.59,1.01,1,1.58,1.24s1.19,0.36,1.85,0.36c0.64,0,1.23-0.12,1.74-0.36c0.52-0.24,0.96-0.61,1.32-1.11
		c0.36-0.49,0.64-1.12,0.84-1.87c0.19-0.75,0.29-1.64,0.29-2.67c0-1.04-0.09-1.91-0.25-2.63c-0.17-0.72-0.41-1.3-0.71-1.75
		c-0.31-0.45-0.69-0.78-1.13-0.98c-0.45-0.21-0.95-0.31-1.51-0.31c-0.88,0-1.64,0.19-2.26,0.56c-0.62,0.37-1.21,0.9-1.76,1.58
		V229.63z"/>
	<path class="st10" d="M433.59,219.59c0.55-1.06,1.21-1.89,1.97-2.49c0.76-0.6,1.66-0.9,2.69-0.9c0.82,0,1.47,0.18,1.97,0.54
		l-0.28,3.19c-0.06,0.21-0.14,0.35-0.25,0.44c-0.11,0.09-0.26,0.13-0.44,0.13c-0.17,0-0.43-0.03-0.77-0.09
		c-0.34-0.06-0.67-0.09-0.99-0.09c-0.47,0-0.89,0.07-1.26,0.21s-0.7,0.34-0.99,0.6c-0.3,0.26-0.55,0.57-0.78,0.94
		c-0.23,0.37-0.44,0.79-0.63,1.26v10.91h-4.27v-17.71h2.5c0.44,0,0.74,0.08,0.91,0.23c0.18,0.16,0.29,0.43,0.35,0.84L433.59,219.59z
		"/>
	<path class="st10" d="M449.81,216.24c1.31,0,2.5,0.21,3.58,0.64c1.08,0.43,2,1.03,2.76,1.81c0.76,0.78,1.36,1.74,1.77,2.86
		c0.42,1.13,0.62,2.39,0.62,3.78c0,1.4-0.21,2.67-0.62,3.8c-0.41,1.13-1.01,2.09-1.77,2.88c-0.76,0.79-1.68,1.4-2.76,1.83
		c-1.08,0.42-2.27,0.64-3.58,0.64c-1.33,0-2.53-0.21-3.61-0.64c-1.09-0.43-2-1.04-2.77-1.83c-0.76-0.79-1.36-1.76-1.77-2.88
		c-0.42-1.13-0.63-2.39-0.63-3.8c0-1.39,0.21-2.65,0.63-3.78c0.42-1.13,1.01-2.08,1.77-2.86c0.77-0.78,1.69-1.39,2.77-1.81
		C447.28,216.45,448.48,216.24,449.81,216.24z M449.81,231.2c1.47,0,2.56-0.49,3.27-1.48c0.7-0.99,1.06-2.44,1.06-4.35
		c0-1.91-0.36-3.37-1.06-4.37c-0.71-1-1.8-1.5-3.27-1.5c-1.5,0-2.61,0.5-3.33,1.51c-0.72,1.01-1.08,2.46-1.08,4.36
		c0,1.9,0.36,3.34,1.08,4.34C447.2,230.71,448.31,231.2,449.81,231.2z"/>
	<path class="st10" d="M477.25,216.51l-7.03,17.71h-3.86l-7.02-17.71h3.52c0.32,0,0.59,0.08,0.8,0.22c0.22,0.15,0.36,0.34,0.43,0.57
		l3.42,9.46c0.18,0.55,0.34,1.09,0.48,1.62c0.14,0.53,0.26,1.06,0.36,1.59c0.12-0.53,0.24-1.06,0.38-1.59
		c0.14-0.53,0.3-1.07,0.5-1.62l3.49-9.46c0.08-0.23,0.23-0.42,0.43-0.57c0.21-0.15,0.45-0.22,0.74-0.22H477.25z"/>
	<path class="st10" d="M482.28,225.91c0.07,0.91,0.23,1.69,0.48,2.35c0.25,0.66,0.59,1.21,1,1.64c0.42,0.43,0.91,0.75,1.48,0.97
		c0.57,0.21,1.2,0.32,1.89,0.32s1.29-0.08,1.79-0.24c0.5-0.16,0.93-0.34,1.31-0.54c0.37-0.2,0.7-0.37,0.98-0.54
		c0.29-0.16,0.56-0.24,0.82-0.24c0.36,0,0.62,0.13,0.79,0.4l1.23,1.55c-0.47,0.55-1,1.02-1.59,1.39c-0.59,0.37-1.2,0.67-1.84,0.9
		c-0.64,0.22-1.29,0.38-1.95,0.47c-0.66,0.09-1.3,0.14-1.92,0.14c-1.23,0-2.37-0.2-3.43-0.61c-1.06-0.41-1.98-1.01-2.76-1.81
		c-0.78-0.8-1.4-1.79-1.84-2.97c-0.45-1.18-0.67-2.55-0.67-4.1c0-1.21,0.2-2.34,0.59-3.41c0.39-1.07,0.95-1.99,1.68-2.78
		c0.73-0.79,1.62-1.41,2.68-1.87c1.05-0.46,2.24-0.69,3.56-0.69c1.12,0,2.15,0.18,3.09,0.54c0.94,0.36,1.75,0.88,2.43,1.56
		c0.68,0.68,1.21,1.53,1.6,2.52c0.39,0.99,0.58,2.13,0.58,3.41c0,0.64-0.07,1.08-0.21,1.3c-0.14,0.22-0.4,0.34-0.79,0.34H482.28z
		 M490.41,223.33c0-0.55-0.08-1.07-0.24-1.56c-0.16-0.49-0.39-0.92-0.7-1.29c-0.31-0.37-0.7-0.66-1.18-0.87
		c-0.48-0.21-1.04-0.32-1.67-0.32c-1.23,0-2.2,0.35-2.9,1.05c-0.71,0.7-1.16,1.7-1.36,2.99H490.41z"/>
	<path class="st10" d="M543.51,234.22h-3.59c-0.4,0-0.73-0.1-0.98-0.3c-0.26-0.2-0.44-0.45-0.57-0.75l-1.86-5.09h-10.34l-1.86,5.09
		c-0.09,0.26-0.27,0.51-0.54,0.72c-0.26,0.22-0.59,0.33-0.98,0.33h-3.63l9.82-24.96h4.73L543.51,234.22z M535.32,224.8l-3.04-8.3
		c-0.15-0.37-0.31-0.8-0.47-1.31c-0.16-0.51-0.32-1.05-0.48-1.64c-0.15,0.59-0.31,1.14-0.47,1.65c-0.16,0.51-0.32,0.96-0.47,1.34
		l-3.02,8.27H535.32z"/>
	<path class="st10" d="M557.67,220.26c-0.13,0.16-0.25,0.29-0.37,0.38c-0.12,0.09-0.3,0.14-0.53,0.14c-0.22,0-0.43-0.07-0.64-0.2
		c-0.21-0.13-0.45-0.28-0.74-0.45c-0.29-0.17-0.63-0.32-1.03-0.45c-0.4-0.13-0.89-0.2-1.48-0.2c-0.75,0-1.4,0.14-1.96,0.4
		c-0.56,0.27-1.04,0.66-1.41,1.17c-0.38,0.51-0.65,1.12-0.84,1.84c-0.18,0.72-0.28,1.53-0.28,2.44c0,0.94,0.1,1.78,0.3,2.52
		c0.2,0.74,0.49,1.35,0.87,1.85c0.38,0.5,0.84,0.88,1.38,1.14c0.54,0.26,1.15,0.39,1.83,0.39s1.23-0.08,1.65-0.25
		c0.42-0.17,0.77-0.35,1.06-0.55c0.29-0.2,0.54-0.38,0.75-0.55c0.21-0.17,0.45-0.25,0.71-0.25c0.35,0,0.6,0.13,0.78,0.4l1.23,1.55
		c-0.47,0.55-0.98,1.02-1.54,1.39s-1.13,0.67-1.72,0.9c-0.59,0.22-1.2,0.38-1.83,0.47s-1.25,0.14-1.87,0.14
		c-1.09,0-2.12-0.2-3.09-0.61c-0.96-0.41-1.81-1-2.54-1.79c-0.72-0.78-1.3-1.74-1.71-2.87c-0.42-1.13-0.63-2.42-0.63-3.87
		c0-1.3,0.19-2.5,0.56-3.62c0.37-1.11,0.92-2.07,1.65-2.88c0.72-0.81,1.62-1.45,2.69-1.91s2.3-0.69,3.69-0.69
		c1.32,0,2.48,0.21,3.48,0.64c0.99,0.43,1.89,1.04,2.68,1.83L557.67,220.26z"/>
	<path class="st10" d="M565.88,218.41c0.69-0.65,1.45-1.17,2.28-1.57c0.83-0.4,1.8-0.61,2.92-0.61c0.96,0,1.82,0.16,2.57,0.49
		c0.75,0.33,1.37,0.79,1.87,1.38s0.88,1.3,1.14,2.12c0.26,0.82,0.39,1.73,0.39,2.72v11.27h-4.26v-11.27c0-1.08-0.25-1.92-0.74-2.51
		c-0.5-0.59-1.25-0.89-2.26-0.89c-0.74,0-1.43,0.17-2.07,0.5c-0.65,0.33-1.26,0.79-1.83,1.36v12.81h-4.27v-25.65h4.27V218.41z"/>
	<path class="st10" d="M586.09,211.35c0,0.37-0.08,0.71-0.22,1.04c-0.15,0.32-0.35,0.61-0.6,0.85c-0.25,0.24-0.54,0.43-0.87,0.58
		c-0.34,0.14-0.69,0.22-1.07,0.22c-0.37,0-0.72-0.07-1.05-0.22c-0.33-0.14-0.61-0.34-0.85-0.58c-0.24-0.24-0.44-0.53-0.58-0.85
		c-0.15-0.32-0.22-0.67-0.22-1.04c0-0.38,0.07-0.74,0.22-1.07c0.14-0.33,0.34-0.62,0.58-0.86c0.24-0.24,0.53-0.43,0.85-0.58
		c0.33-0.14,0.67-0.22,1.05-0.22c0.38,0,0.73,0.07,1.07,0.22c0.33,0.15,0.62,0.34,0.87,0.58c0.25,0.24,0.45,0.53,0.6,0.86
		C586.02,210.62,586.09,210.97,586.09,211.35z M585.51,216.51v17.71h-4.28v-17.71H585.51z"/>
	<path class="st10" d="M593.14,225.91c0.07,0.91,0.23,1.69,0.48,2.35c0.25,0.66,0.59,1.21,1,1.64c0.42,0.43,0.91,0.75,1.48,0.97
		s1.2,0.32,1.89,0.32s1.29-0.08,1.79-0.24c0.5-0.16,0.93-0.34,1.31-0.54c0.37-0.2,0.7-0.37,0.98-0.54c0.29-0.16,0.56-0.24,0.82-0.24
		c0.36,0,0.62,0.13,0.79,0.4l1.23,1.55c-0.47,0.55-1,1.02-1.59,1.39c-0.59,0.37-1.2,0.67-1.84,0.9c-0.64,0.22-1.29,0.38-1.95,0.47
		c-0.66,0.09-1.3,0.14-1.92,0.14c-1.23,0-2.37-0.2-3.43-0.61c-1.06-0.41-1.98-1.01-2.76-1.81c-0.78-0.8-1.4-1.79-1.84-2.97
		c-0.45-1.18-0.67-2.55-0.67-4.1c0-1.21,0.2-2.34,0.59-3.41c0.39-1.07,0.95-1.99,1.68-2.78c0.73-0.79,1.62-1.41,2.68-1.87
		c1.05-0.46,2.24-0.69,3.56-0.69c1.12,0,2.15,0.18,3.09,0.54c0.94,0.36,1.75,0.88,2.43,1.56c0.68,0.68,1.21,1.53,1.6,2.52
		s0.58,2.13,0.58,3.41c0,0.64-0.07,1.08-0.21,1.3c-0.14,0.22-0.4,0.34-0.79,0.34H593.14z M601.27,223.33c0-0.55-0.08-1.07-0.24-1.56
		s-0.39-0.92-0.7-1.29c-0.31-0.37-0.7-0.66-1.18-0.87c-0.48-0.21-1.04-0.32-1.67-0.32c-1.23,0-2.2,0.35-2.9,1.05
		c-0.71,0.7-1.16,1.7-1.36,2.99H601.27z"/>
	<path class="st10" d="M623.85,216.51l-7.03,17.71h-3.86l-7.02-17.71h3.52c0.32,0,0.59,0.08,0.8,0.22c0.22,0.15,0.36,0.34,0.43,0.57
		l3.42,9.46c0.18,0.55,0.34,1.09,0.48,1.62c0.14,0.53,0.26,1.06,0.36,1.59c0.12-0.53,0.24-1.06,0.38-1.59
		c0.14-0.53,0.3-1.07,0.5-1.62l3.49-9.46c0.08-0.23,0.23-0.42,0.43-0.57c0.21-0.15,0.45-0.22,0.74-0.22H623.85z"/>
	<path class="st10" d="M628.84,225.91c0.07,0.91,0.23,1.69,0.48,2.35c0.25,0.66,0.59,1.21,1,1.64c0.42,0.43,0.91,0.75,1.48,0.97
		s1.2,0.32,1.89,0.32s1.29-0.08,1.79-0.24c0.5-0.16,0.93-0.34,1.31-0.54c0.37-0.2,0.7-0.37,0.98-0.54c0.29-0.16,0.56-0.24,0.82-0.24
		c0.36,0,0.62,0.13,0.79,0.4l1.23,1.55c-0.47,0.55-1.01,1.02-1.59,1.39c-0.59,0.37-1.2,0.67-1.84,0.9
		c-0.64,0.22-1.29,0.38-1.95,0.47c-0.66,0.09-1.3,0.14-1.92,0.14c-1.23,0-2.37-0.2-3.43-0.61c-1.06-0.41-1.98-1.01-2.76-1.81
		c-0.78-0.8-1.4-1.79-1.84-2.97c-0.45-1.18-0.67-2.55-0.67-4.1c0-1.21,0.2-2.34,0.59-3.41c0.39-1.07,0.95-1.99,1.68-2.78
		c0.73-0.79,1.62-1.41,2.68-1.87c1.05-0.46,2.24-0.69,3.56-0.69c1.12,0,2.15,0.18,3.09,0.54c0.94,0.36,1.75,0.88,2.43,1.56
		c0.68,0.68,1.21,1.53,1.6,2.52s0.58,2.13,0.58,3.41c0,0.64-0.07,1.08-0.21,1.3c-0.14,0.22-0.4,0.34-0.79,0.34H628.84z
		 M636.97,223.33c0-0.55-0.08-1.07-0.24-1.56s-0.39-0.92-0.7-1.29c-0.31-0.37-0.7-0.66-1.18-0.87c-0.48-0.21-1.04-0.32-1.67-0.32
		c-1.23,0-2.2,0.35-2.9,1.05c-0.71,0.7-1.16,1.7-1.36,2.99H636.97z"/>
	<circle class="st10" cx="508.49" cy="224.8" r="3.7"/>
	<path class="st10" d="M353.48,224.8c0-2.05,1.66-3.7,3.7-3.7c2.05,0,3.7,1.66,3.7,3.7s-1.66,3.7-3.7,3.7
		C355.14,228.5,353.48,226.85,353.48,224.8z"/>
</g>
</svg>
