<?xml version="1.0" encoding="utf-8"?>
<!-- Generator: Adobe Illustrator 24.3.0, SVG Export Plug-In . SVG Version: 6.00 Build 0)  -->
<svg version="1.1" xmlns="http://www.w3.org/2000/svg" xmlns:xlink="http://www.w3.org/1999/xlink" x="0px" y="0px"
	 viewBox="0 0 50 50" style="enable-background:new 0 0 50 50;" xml:space="preserve">
<style type="text/css">
	.st0{display:none;}
	.st1{display:inline;}
	.st2{fill:#1A73E8;}
	.st3{fill:none;stroke:#000000;stroke-miterlimit:10;}
	.st4{fill:#DDDDDD;stroke:#000000;stroke-miterlimit:10;}
	.st5{fill:none;stroke:#000000;stroke-linecap:round;stroke-miterlimit:10;}
	.st6{fill:none;stroke:#000000;stroke-linecap:round;stroke-linejoin:round;stroke-miterlimit:10;}
	.st7{fill:#EDEDED;stroke:#000000;stroke-linejoin:round;stroke-miterlimit:10;}
	.st8{fill:#EDEDED;stroke:#000000;stroke-linecap:round;stroke-linejoin:round;stroke-miterlimit:10;}
	.st9{fill:#1A73E8;stroke:#000000;stroke-linejoin:round;stroke-miterlimit:10;}
	.st10{fill:#3381E0;}
	.st11{fill:#3381E0;stroke:#000000;stroke-miterlimit:10;}
	.st12{fill:#FFFFFF;}
	.st13{display:inline;fill:#D8DBD7;stroke:#000000;stroke-linejoin:round;stroke-miterlimit:10;}
	.st14{fill:#E8F2FC;stroke:#000000;stroke-linecap:round;stroke-linejoin:round;stroke-miterlimit:10;}
	.st15{fill:#3B94EC;stroke:#000000;stroke-linecap:round;stroke-linejoin:round;stroke-miterlimit:10;}
	.st16{fill:#D8DBD7;stroke:#000000;stroke-miterlimit:10;}
	.st17{fill:#D8DBD7;stroke:#000000;stroke-linejoin:round;stroke-miterlimit:10;}
	.st18{fill:#D8DBD7;}
	.st19{fill:#3B94EC;}
	.st20{fill:none;stroke:#000000;stroke-linejoin:round;stroke-miterlimit:10;}
	.st21{fill:#838383;}
	.st22{fill:#DADADA;}
</style>
<g id="Layer_1" class="st0">
	<g class="st1">
		<g>
			<g>
				<g>
					<g>
						<path class="st2" d="M25.09,43.23c-9.94,0-18.02-8.08-18.02-18.02S15.15,7.19,25.09,7.19c9.94,0,18.02,8.08,18.02,18.02
							S35.03,43.23,25.09,43.23z"/>
					</g>
				</g>
			</g>
			<g>
				<g>
					<g>
						<g>
							<path class="st3" d="M42.54,25.24c0,9.64-7.81,17.45-17.45,17.45c-9.64,0-17.45-7.81-17.45-17.45
								c0-9.64,7.81-17.45,17.45-17.45C34.73,7.79,42.54,15.61,42.54,25.24z"/>
							<ellipse class="st3" cx="25.09" cy="25.24" rx="9.88" ry="17.45"/>
							<line class="st3" x1="25.09" y1="7.79" x2="25.09" y2="42.63"/>
						</g>
						<line class="st3" x1="8.92" y1="18.3" x2="41.27" y2="18.3"/>
						<g>
							<path class="st3" d="M42.54,25.24c0-9.64-7.81-17.45-17.45-17.45c-9.64,0-17.45,7.81-17.45,17.45
								c0,9.64,7.81,17.45,17.45,17.45C34.73,42.7,42.54,34.88,42.54,25.24z"/>
							<ellipse class="st3" cx="25.09" cy="25.24" rx="9.88" ry="17.45"/>
							<line class="st3" x1="25.09" y1="42.7" x2="25.09" y2="7.86"/>
						</g>
						<line class="st3" x1="8.92" y1="32.19" x2="41.27" y2="32.19"/>
					</g>
				</g>
			</g>
		</g>
		<g>
			<g>
				<g>
					<path class="st4" d="M42.67,31.33c0.37-1.02,0.31-2.16-0.15-3.14c-0.31-0.65-0.35-1.41-0.1-2.09l1.27-3.54
						c0.18-0.5-0.08-1.04-0.58-1.22l-2.24-0.8c-0.5-0.18-1.04,0.08-1.22,0.58l-1.26,3.52c-0.24,0.69-0.76,1.25-1.42,1.57
						c-0.99,0.47-1.76,1.32-2.12,2.35l-4.15,11.63c-0.77,2.15,0.35,4.52,2.51,5.29c2.15,0.77,4.53-0.35,5.3-2.5L42.67,31.33z"/>
				</g>
				<line class="st5" x1="41.97" y1="20.93" x2="45.82" y2="9.86"/>
				<polygon class="st6" points="48.5,4.86 46.91,4.29 44.31,9.32 47.32,10.4 				"/>
			</g>
			<g>
				<line class="st6" x1="36.46" y1="30.21" x2="33.23" y2="39.25"/>
				<line class="st6" x1="38.4" y1="30.91" x2="35.18" y2="39.94"/>
				<line class="st6" x1="40.35" y1="31.61" x2="37.13" y2="40.64"/>
			</g>
		</g>
		<path class="st7" d="M20.84,23.13c0.8,0.01,1.46-0.63,1.46-1.43l0-0.09c0.01-0.83-0.65-1.51-1.48-1.52c-0.44,0-0.8-0.31-0.93-0.73
			c-0.19-0.64-0.46-1.26-0.81-1.85c-0.21-0.36-0.13-0.81,0.16-1.1c0.59-0.58,0.6-1.53,0.02-2.12c-0.59-0.6-1.56-0.63-2.17-0.04
			c-0.33,0.32-0.82,0.39-1.22,0.18c-0.54-0.29-1.11-0.52-1.69-0.68c-0.44-0.12-0.8-0.49-0.79-0.95c0.01-0.84-0.66-1.55-1.5-1.56
			c-0.84-0.01-1.53,0.66-1.54,1.5c-0.01,0.49-0.35,0.91-0.82,1.06c-0.55,0.17-1.09,0.39-1.6,0.68c-0.4,0.22-0.91,0.19-1.23-0.13
			c-0.59-0.61-1.57-0.64-2.18-0.05c-0.6,0.59-0.61,1.55-0.02,2.15c0.33,0.33,0.43,0.84,0.2,1.25c-0.3,0.53-0.54,1.09-0.71,1.67
			c-0.13,0.44-0.5,0.79-0.96,0.79c-0.84-0.01-1.54,0.66-1.55,1.5c-0.01,0.84,0.67,1.53,1.5,1.54c0.44,0,0.84,0.3,0.95,0.73
			c0.17,0.64,0.43,1.27,0.76,1.86c0.2,0.36,0.12,0.81-0.17,1.1c-0.59,0.57-0.6,1.51-0.02,2.1l0.05,0.05
			c0.58,0.59,1.52,0.6,2.11,0.02c0.32-0.31,0.81-0.32,1.19-0.11c0.6,0.34,1.23,0.6,1.89,0.78c0.39,0.11,0.65,0.47,0.65,0.87
			c-0.01,0.79,0.63,1.44,1.42,1.45l0.15,0c0.8,0.01,1.46-0.63,1.47-1.44c0-0.43,0.33-0.78,0.75-0.9c0.66-0.18,1.29-0.45,1.9-0.8
			c0.35-0.2,0.8-0.16,1.09,0.13c0.55,0.56,1.45,0.57,2.01,0.02l0.11-0.11c0.58-0.56,0.59-1.49,0.02-2.07
			c-0.29-0.29-0.36-0.74-0.16-1.09c0.35-0.63,0.62-1.29,0.8-1.97C20.07,23.41,20.43,23.13,20.84,23.13z M14.14,23.9
			c-1.18,1.19-3.15,1.23-4.36,0.02c-1.95-1.94-0.57-5.34,2.25-5.27C14.73,18.71,16.04,21.98,14.14,23.9z"/>
	</g>
</g>
<g id="Layer_2" class="st0">
	<g class="st1">
		<path class="st8" d="M40.89,37.94c0,0.79-0.64,1.42-1.42,1.42H14.65c-0.79,0-1.42-0.64-1.42-1.42V18.61
			c0-0.79,0.64-1.43,1.42-1.43h24.82c0.79,0,1.42,0.64,1.42,1.43V37.94z"/>
		<path class="st8" d="M21.88,35.46c0,0.76-0.62,1.38-1.38,1.38h-3.6c-0.76,0-1.38-0.62-1.38-1.38V20.91c0-0.76,0.62-1.38,1.38-1.38
			h3.6c0.76,0,1.38,0.62,1.38,1.38V35.46z"/>
		<path class="st8" d="M37.05,22.97c0,0.79-0.64,1.42-1.42,1.42H24.84c-0.79,0-1.42-0.64-1.42-1.42v-5.61
			c0-0.79,0.64-1.42,1.42-1.42h10.79c0.79,0,1.42,0.64,1.42,1.42V22.97z"/>
		<path class="st2" d="M35.37,17.61v5.09H25.09v-5.09H35.37"/>
		<g>
			<line class="st6" x1="24.66" y1="26.38" x2="27.17" y2="26.38"/>
			<line class="st6" x1="29.07" y1="26.38" x2="31.57" y2="26.38"/>
			<line class="st6" x1="33.47" y1="26.38" x2="35.97" y2="26.38"/>
		</g>
		<g>
			<line class="st6" x1="24.66" y1="29.32" x2="27.17" y2="29.32"/>
			<line class="st6" x1="29.07" y1="29.32" x2="31.57" y2="29.32"/>
			<line class="st6" x1="33.47" y1="29.32" x2="35.97" y2="29.32"/>
		</g>
		<g>
			<line class="st6" x1="24.66" y1="32.27" x2="27.17" y2="32.27"/>
			<line class="st6" x1="29.07" y1="32.27" x2="31.57" y2="32.27"/>
			<line class="st6" x1="33.47" y1="32.27" x2="35.97" y2="32.27"/>
		</g>
		<g>
			<line class="st6" x1="24.66" y1="35.21" x2="27.17" y2="35.21"/>
			<line class="st6" x1="29.07" y1="35.21" x2="31.57" y2="35.21"/>
			<line class="st6" x1="33.47" y1="35.21" x2="35.97" y2="35.21"/>
		</g>
		<path class="st6" d="M18.7,36.84v6.3c0,2.32-1.88,4.2-4.2,4.2l0,0c-2.32,0-4.2-1.88-4.2-4.2V32.62c0-1.6,1.09-2.94,2.57-3.33"/>
		<g>
			<path class="st8" d="M37.08,6.19h-6.91c-0.74,0-1.34,0.6-1.34,1.34c0,0,0,2.72,0,3.62c0,0.58,0.8,3.04,0.8,3.04l0.97-0.97
				l0.72-0.72h5.75c0.74,0,1.34-0.6,1.34-1.34V7.53C38.41,6.79,37.81,6.19,37.08,6.19z"/>
			<g>
				<path d="M32.11,9.26c0,0.26-0.21,0.47-0.47,0.47c-0.26,0-0.47-0.21-0.47-0.47c0-0.26,0.21-0.47,0.47-0.47
					C31.9,8.79,32.11,9,32.11,9.26z"/>
				<path d="M34.09,9.26c0,0.26-0.21,0.47-0.47,0.47c-0.26,0-0.47-0.21-0.47-0.47c0-0.26,0.21-0.47,0.47-0.47
					C33.88,8.79,34.09,9,34.09,9.26z"/>
				<path d="M36.07,9.26c0,0.26-0.21,0.47-0.47,0.47s-0.47-0.21-0.47-0.47c0-0.26,0.21-0.47,0.47-0.47S36.07,9,36.07,9.26z"/>
			</g>
		</g>
		<path class="st9" d="M25.61,6.59c0-2.89-2.34-5.23-5.23-5.23c-2.89,0-5.23,2.34-5.23,5.23c0,2.76,2.13,5.01,4.84,5.21l1.11,1.11
			l1.28,1.28l0.47-1.75l0.39-1.47C24.66,10.04,25.61,8.43,25.61,6.59z"/>
	</g>
</g>
<g id="Layer_3" class="st0">
	<g class="st1">
		<g>
			<g>
				<path class="st8" d="M40.13,26.78c0,8.04-6.51,14.55-14.55,14.55c-8.04,0-14.55-6.51-14.55-14.55c0-8.03,6.51-14.55,14.55-14.55
					C33.62,12.24,40.13,18.75,40.13,26.78z"/>
				<line class="st6" x1="25.58" y1="14.28" x2="25.58" y2="16.02"/>
				<line class="st6" x1="16.78" y1="17.93" x2="18" y2="19.15"/>
				<line class="st6" x1="13.13" y1="26.73" x2="14.86" y2="26.73"/>
				<line class="st6" x1="16.77" y1="35.53" x2="17.99" y2="34.31"/>
				<line class="st6" x1="25.57" y1="39.19" x2="25.57" y2="37.45"/>
				<line class="st6" x1="34.37" y1="35.54" x2="33.15" y2="34.32"/>
				<line class="st6" x1="38.03" y1="26.74" x2="36.3" y2="26.74"/>
				<line class="st6" x1="34.39" y1="17.94" x2="33.16" y2="19.16"/>
			</g>
			<g>
				<path class="st10" d="M20.56,29.96v-0.88l0.81-0.73c1.36-1.22,2.03-1.92,2.05-2.65c0-0.51-0.31-0.91-1.03-0.91
					c-0.54,0-1.01,0.27-1.33,0.52l-0.41-1.05c0.47-0.36,1.2-0.64,2.05-0.64c1.41,0,2.19,0.83,2.19,1.96c0,1.05-0.76,1.88-1.66,2.69
					l-0.58,0.48v0.02h2.35v1.2H20.56z"/>
				<path class="st10" d="M28.47,29.96v-1.49h-2.77v-0.95l2.36-3.8h1.79v3.66h0.75v1.09h-0.75v1.49H28.47z M28.47,27.38v-1.38
					c0-0.37,0.02-0.76,0.05-1.16h-0.04c-0.2,0.4-0.37,0.77-0.58,1.16l-0.84,1.36v0.02H28.47z"/>
			</g>
		</g>
		<path class="st6" d="M44.56,19.24c0.93,2.33,1.44,4.88,1.44,7.54c0,11.28-9.14,20.42-20.42,20.42c-11.28,0-20.42-9.14-20.42-20.42
			c0-11.28,9.14-20.42,20.42-20.42"/>
		<g>
			<line class="st6" x1="25.58" y1="6.37" x2="22.01" y2="9.94"/>
			<line class="st6" x1="25.58" y1="6.37" x2="22.01" y2="2.8"/>
		</g>
	</g>
</g>
<g id="Layer_4" class="st0">
	<g class="st1">
		<path d="M44.44,47.46c-0.91-0.89-1.84-1.77-2.74-2.66c-1.4-1.39-2.79-2.79-4.19-4.18c-0.07-0.07-0.15-0.14-0.24-0.23
			c-2.92,1.91-6.06,2.44-9.37,1.29c-3.32-1.15-5.47-3.49-6.59-6.85c-1.67,0-3.35,0-5.03,0c-1.67,0-3.33,0-5.02,0
			c0-0.5,0-0.96,0-1.48c3.24,0,6.48,0,9.74,0c-0.24-1.83-0.07-3.56,0.58-5.23c0.06-0.14,0.04-0.31,0.04-0.47c0-2.38,0-4.76,0-7.14
			c0-0.16,0-0.32,0-0.51c0.49,0,0.96,0,1.48,0c0,1.77,0,3.54,0,5.3c0.48-0.45,0.95-0.87,1.39-1.32c0.09-0.09,0.1-0.29,0.1-0.44
			c0.01-1.51,0-3.02,0-4.53c0-0.16,0-0.31,0-0.5c0.49,0,0.95,0,1.46,0c0,1.42,0,2.84,0,4.33c0.51-0.23,0.96-0.42,1.39-0.65
			c0.08-0.04,0.11-0.25,0.12-0.38c0.01-0.84,0.01-1.68,0.01-2.55c0.5,0,0.95,0,1.48,0c0,0.79,0,1.59,0,2.42
			c0.52-0.07,0.98-0.14,1.49-0.21c0-1.72,0-3.44,0-5.18c0.51,0,0.97,0,1.48,0c0,1.72,0,3.44,0,5.17c0.52,0.07,0.99,0.14,1.5,0.22
			c0-2.3,0-4.57,0-6.87c0.51,0,0.98,0,1.5,0c0,0.19,0,0.36,0,0.53c0,2.13,0,4.27-0.01,6.4c0,0.3,0.06,0.47,0.37,0.58
			c0.36,0.12,0.7,0.32,1.11,0.52c0-1.7,0-3.36,0-5.05c0.51,0,0.98,0,1.5,0c0,0.17,0,0.32,0,0.48c0,1.76,0.01,3.51-0.01,5.27
			c0,0.27,0.07,0.46,0.28,0.63c0.43,0.34,0.83,0.71,1.2,1.03c0-1.38,0-2.89,0-4.44c0.51,0,0.98,0,1.49,0c0,0.17,0,0.32,0,0.48
			c0,2.15,0,4.29,0,6.44c0,0.21,0.03,0.44,0.1,0.63c0.58,1.57,0.75,3.18,0.54,4.84c-0.01,0.05,0,0.11,0,0.2c0.28,0,0.53,0,0.81,0
			c0,0.51,0,0.98,0,1.44c-0.04,0.02-0.06,0.05-0.09,0.04c-0.82-0.16-1.29,0.16-1.43,1c-0.03,0.19-0.13,0.39-0.25,0.55
			c-0.28,0.39-0.19,0.65,0.15,0.98c2.15,2.12,4.28,4.26,6.41,6.39c0.58,0.58,0.58,0.91-0.01,1.5c-0.58,0.59-1.17,1.17-1.76,1.75
			c-0.17,0.17-0.38,0.31-0.57,0.47C44.73,47.46,44.58,47.46,44.44,47.46z M40.2,31.86c0-4.93-4-8.92-8.91-8.91
			c-4.92,0.01-8.91,4-8.91,8.92c0.01,4.93,3.99,8.91,8.92,8.91C36.22,40.77,40.2,36.79,40.2,31.86z M45.77,44.53
			c-2.11-2.11-4.18-4.19-6.27-6.27c-0.33,0.37-0.69,0.76-1.08,1.2c2.07,2.07,4.14,4.14,6.21,6.21
			C45.04,45.25,45.42,44.88,45.77,44.53z"/>
		<path d="M21.6,38.55c0,0.52,0,0.98,0,1.46c-0.1,0.01-0.18,0.03-0.27,0.03c-3.12,0-6.24,0.02-9.36-0.01
			c-1.82-0.02-3.25-1.2-3.63-2.93c-0.08-0.35-0.09-0.72-0.09-1.08c0-7.73-0.01-15.47,0-23.2c0-2.44,1.56-4,4-4
			c9.72,0,19.45,0,29.17,0c2.42,0,3.98,1.56,3.98,3.97c0,7.78,0,15.55,0,23.33c0,0.98-0.26,1.85-0.93,2.65
			c-0.37-0.32-0.72-0.63-1.12-0.97c0.61-0.67,0.56-1.48,0.56-2.3c0-7.54,0-15.09,0-22.63c0-1.68-0.87-2.55-2.54-2.55
			c-9.69,0-19.39,0-29.08,0c-1.68,0-2.55,0.87-2.55,2.54c0,7.72,0,15.44,0,23.16c0,1.68,0.87,2.54,2.55,2.54c2.92,0,5.83,0,8.75,0
			C21.21,38.55,21.39,38.55,21.6,38.55z"/>
		<path d="M40.91,7.32c-0.48,0-0.94,0-1.45,0c0-0.2,0-0.39,0-0.57c-0.01-1.43-0.94-2.37-2.38-2.37c-5.41,0-10.83,0-16.24,0
			c-4.34,0-8.68,0-13.02,0c-1.67,0-2.56,0.88-2.56,2.54c0,7.72,0,15.44-0.01,23.16c0,1.2,0.48,2.03,1.67,2.48
			C6.82,33,6.71,33.46,6.58,33.96c-0.76-0.18-1.35-0.56-1.84-1.1c-0.64-0.71-0.95-1.56-0.95-2.5c-0.01-7.89-0.01-15.79,0-23.68
			c0-2.2,1.64-3.78,3.87-3.78c9.78,0,19.57,0,29.35,0C39.54,2.89,41.18,4.73,40.91,7.32z"/>
		<path d="M15.71,22.97c0.5,0,0.96,0,1.44,0c0,2.96,0,5.9,0,8.87c-0.48,0-0.94,0-1.44,0C15.71,28.88,15.71,25.94,15.71,22.97z"/>
		<path d="M18.68,25.2c0.5,0,0.96,0,1.44,0c0,2.22,0,4.42,0,6.64c-0.48,0-0.95,0-1.44,0C18.68,29.62,18.68,27.43,18.68,25.2z"/>
		<path d="M14.17,31.85c-0.49,0-0.93,0-1.42,0c0-1.46,0-2.92,0-4.41c0.45,0,0.92,0,1.42,0C14.17,28.9,14.17,30.36,14.17,31.85z"/>
		<path d="M8.22,7.32c-0.49,0-0.95,0-1.44,0c0-0.48,0-0.94,0-1.43c0.47,0,0.94,0,1.44,0C8.22,6.36,8.22,6.81,8.22,7.32z"/>
		<path d="M11.2,5.87c0,0.48,0,0.95,0,1.44c-0.48,0-0.94,0-1.43,0c0-0.49,0-0.95,0-1.44C10.25,5.87,10.71,5.87,11.2,5.87z"/>
		<path d="M12.74,7.31c0-0.48,0-0.94,0-1.43c0.47,0,0.94,0,1.43,0c0,0.47,0,0.93,0,1.43C13.7,7.31,13.24,7.31,12.74,7.31z"/>
		<path d="M18.62,13.26c-0.52,0-0.96,0-1.43,0c0-0.49,0-0.95,0-1.44c0.49,0,0.95,0,1.43,0C18.62,12.32,18.62,12.79,18.62,13.26z"/>
		<path d="M12.7,11.83c0,0.49,0,0.93,0,1.41c-0.48,0-0.95,0-1.44,0c0-0.47,0-0.92,0-1.41C11.73,11.83,12.19,11.83,12.7,11.83z"/>
		<path d="M14.23,11.82c0.48,0,0.94,0,1.43,0c0,0.48,0,0.93,0,1.43c-0.47,0-0.93,0-1.43,0C14.23,12.79,14.23,12.33,14.23,11.82z"/>
		<path class="st10" d="M40.2,31.86c0,4.93-3.98,8.91-8.9,8.91c-4.93,0-8.91-3.98-8.92-8.91c-0.01-4.92,3.98-8.92,8.91-8.92
			C36.2,22.94,40.19,26.93,40.2,31.86z M31.28,24.43c-4.1,0-7.41,3.31-7.42,7.41c-0.01,4.12,3.3,7.45,7.42,7.45
			c4.1,0,7.41-3.3,7.42-7.4C38.72,27.77,35.39,24.43,31.28,24.43z"/>
		<path class="st10" d="M45.77,44.53c-0.35,0.34-0.73,0.72-1.15,1.14c-2.07-2.07-4.14-4.14-6.21-6.21c0.39-0.43,0.75-0.83,1.08-1.2
			C41.58,40.35,43.66,42.42,45.77,44.53z"/>
		<path d="M31.28,24.43c4.11,0,7.43,3.34,7.42,7.45c-0.01,4.1-3.32,7.4-7.42,7.4c-4.12,0-7.43-3.33-7.42-7.45
			C23.87,27.74,27.19,24.43,31.28,24.43z M27.56,27.32c-1.88,1.26-2.67,4.26-1.95,6.02c3.8,0,7.6,0,11.39,0
			c0.71-2.01-0.24-4.94-2-6.01c0,1.51,0,3,0,4.5c-0.51,0-0.98,0-1.47,0c0-0.19,0-0.35,0-0.51c0-1.52,0.01-3.05-0.01-4.57
			c0-0.16-0.09-0.41-0.19-0.45c-0.39-0.15-0.81-0.24-1.3-0.37c0,2.03,0,3.97,0,5.91c-0.51,0-0.97,0-1.48,0c0-1.96,0-3.9,0-5.89
			c-0.41,0.1-0.76,0.19-1.11,0.27c-0.28,0.06-0.39,0.21-0.38,0.51c0.02,1.49,0.01,2.99,0.01,4.48c0,0.2,0,0.4,0,0.62
			c-0.52,0-0.98,0-1.5,0C27.56,30.32,27.56,28.83,27.56,27.32z M36.42,34.87c-3.46,0-6.83,0-10.27,0c1.26,1.91,2.95,2.94,5.18,2.92
			C33.52,37.77,35.19,36.75,36.42,34.87z"/>
		<path class="st10" d="M27.56,27.32c0,1.51,0,3,0,4.52c0.51,0,0.98,0,1.5,0c0-0.22,0-0.42,0-0.62c0-1.49,0.01-2.99-0.01-4.48
			c0-0.31,0.1-0.45,0.38-0.51c0.35-0.08,0.7-0.17,1.11-0.27c0,2,0,3.93,0,5.89c0.51,0,0.97,0,1.48,0c0-1.94,0-3.88,0-5.91
			c0.48,0.13,0.9,0.21,1.3,0.37c0.11,0.04,0.19,0.29,0.19,0.45c0.01,1.52,0.01,3.05,0.01,4.57c0,0.16,0,0.32,0,0.51
			c0.5,0,0.96,0,1.47,0c0-1.5,0-2.99,0-4.5c1.75,1.07,2.7,4,2,6.01c-3.79,0-7.59,0-11.39,0C24.88,31.58,25.67,28.58,27.56,27.32z"/>
		<path class="st10" d="M36.42,34.87c-1.23,1.88-2.89,2.91-5.09,2.92c-2.23,0.02-3.92-1.01-5.18-2.92
			C29.59,34.87,32.96,34.87,36.42,34.87z"/>
	</g>
</g>
<g id="Layer_5" class="st0">
	<g class="st1">
		<path class="st8" d="M1.87,19.18c0.04-0.16,0.09-0.31,0.13-0.47c0.47-1.76,2.01-2.97,3.85-3c0.77-0.01,1.54-0.02,2.31,0.01
			c0.35,0.01,0.5-0.1,0.66-0.42c2.49-5.24,6.53-8.64,12.21-9.87c7.99-1.74,15.96,2.35,19.34,9.79c0.17,0.38,0.37,0.51,0.78,0.5
			c0.98-0.01,1.96-0.05,2.93,0.08c1.83,0.24,3.26,1.86,3.3,3.7c0.04,1.93,0.05,3.85,0,5.78c-0.06,2.04-1.8,3.71-3.84,3.76
			c-0.83,0.02-1.66,0.03-2.49,0c-0.35-0.01-0.51,0.1-0.66,0.42c-2.22,4.81-5.87,8.01-10.94,9.58c-0.27,0.08-0.54,0.15-0.78,0.22
			c-0.04,0.86,0,1.7-0.13,2.52c-0.31,2-2.12,3.38-4.18,3.27c-1.95-0.1-3.6-1.75-3.73-3.71c-0.13-2.03,1.27-3.86,3.26-4.19
			c0.7-0.12,1.42-0.08,2.12-0.17c5.99-0.75,10.19-3.92,12.34-9.55c3.26-8.52-2.24-17.99-11.24-19.53
			c-8.1-1.38-15.84,4.24-17.01,12.34c-0.36,2.53-0.05,4.99,0.76,7.4c0.15,0.45,0.29,0.89,0.46,1.41c-0.22,0-0.37,0-0.53,0
			c-1.57,0-3.14,0-4.71,0c-2.17,0-3.64-1.16-4.16-3.27c-0.02-0.07-0.05-0.14-0.07-0.2C1.87,23.45,1.87,21.32,1.87,19.18z"/>
		<path class="st11" d="M12.64,34.39c0-0.9,0-1.76,0-2.5c0.6-0.28,1.16-0.52,1.7-0.81c0.2-0.11,0.34-0.32,0.48-0.52
			c0.41-0.58,0.41-0.68,0-1.27c-5.16-7.37-0.72-17.56,8.2-18.81c6.67-0.93,12.89,3.96,13.55,10.66c0.64,6.45-3.81,12.15-10.23,13.12
			c-0.54,0.08-1.09,0.11-1.64,0.12c-3.91,0.01-7.82,0.01-11.73,0.01C12.87,34.39,12.78,34.39,12.64,34.39z"/>
		<path class="st12" d="M20.59,23.71c-0.88,0-1.72,0-2.6,0c0-0.87,0-1.73,0-2.63c0.85,0,1.72,0,2.6,0
			C20.59,21.96,20.59,22.83,20.59,23.71z"/>
		<path class="st12" d="M23.32,23.69c0-0.88,0-1.74,0-2.61c0.87,0,1.72,0,2.61,0c0,0.85,0,1.72,0,2.61
			C25.08,23.69,24.21,23.69,23.32,23.69z"/>
		<path class="st12" d="M31.27,23.71c-0.88,0-1.72,0-2.6,0c0-0.87,0-1.73,0-2.63c0.85,0,1.71,0,2.6,0
			C31.27,21.95,31.27,22.81,31.27,23.71z"/>
	</g>
</g>
<g id="Layer_6" class="st0">
	<g>
		<path class="st13" d="M39.15,29.22l-1.68-3.23l1.67-3.27l5.85-0.01c-1.07-1.62-2.9-2.68-4.98-2.68c-2.6,0.01-4.79,1.68-5.6,4
			l-19.06,0.03c-0.82-2.32-3.02-3.98-5.62-3.97c-2.08,0.01-3.91,1.08-4.97,2.71l5.85-0.01l1.69,3.23l-1.67,3.27l-5.85,0.01
			c1.07,1.62,2.9,2.68,4.98,2.68c2.59-0.01,4.79-1.68,5.6-4l19.06-0.03c0.82,2.32,3.02,3.98,5.62,3.97c2.08,0,3.91-1.08,4.96-2.7
			L39.15,29.22z"/>
		<g class="st1">
			<g>
				<rect x="22.68" y="3.79" class="st14" width="4.4" height="44.43"/>
				<polygon class="st15" points="18.43,6.19 14.68,11.43 14.68,13.4 35.08,13.4 35.08,11.43 35.08,6.19 				"/>
			</g>
			<rect x="22.68" y="30.59" class="st16" width="4.4" height="17.62"/>
			<path d="M25.35,33.39c0,0.26-0.21,0.47-0.47,0.47c-0.26,0-0.47-0.21-0.47-0.47c0-0.26,0.21-0.47,0.47-0.47
				C25.14,32.93,25.35,33.13,25.35,33.39z"/>
			<path d="M25.35,36.22c0,0.26-0.21,0.47-0.47,0.47c-0.26,0-0.47-0.21-0.47-0.47c0-0.26,0.21-0.47,0.47-0.47
				C25.14,35.76,25.35,35.97,25.35,36.22z"/>
			<path d="M25.35,39.06c0,0.26-0.21,0.47-0.47,0.47c-0.26,0-0.47-0.21-0.47-0.47c0-0.26,0.21-0.47,0.47-0.47
				C25.14,38.59,25.35,38.8,25.35,39.06z"/>
			<path d="M25.35,41.89c0,0.26-0.21,0.47-0.47,0.47c-0.26,0-0.47-0.21-0.47-0.47c0-0.26,0.21-0.47,0.47-0.47
				C25.14,41.42,25.35,41.63,25.35,41.89z"/>
			<path d="M25.35,44.72c0,0.26-0.21,0.47-0.47,0.47c-0.26,0-0.47-0.21-0.47-0.47c0-0.26,0.21-0.47,0.47-0.47
				C25.14,44.26,25.35,44.47,25.35,44.72z"/>
		</g>
	</g>
	<g class="st1">
		<path class="st17" d="M12.73,47.39c-0.62-0.26-1.3-0.42-1.85-0.79c-1.18-0.81-1.6-2.03-1.6-3.43c0-6.35,0-12.7,0-19.04
			c0-2.44-0.01-4.88,0.01-7.32c0-0.33-0.11-0.5-0.38-0.66C5.3,13.98,3.87,9.85,5.42,5.94c0.67-1.7,1.84-3.01,3.5-4
			c0,0.21,0,0.36,0,0.51c0,1.88,0.01,3.76-0.01,5.64c0,0.31,0.1,0.47,0.37,0.62c1.15,0.64,2.28,1.31,3.41,1.98
			c0.23,0.14,0.41,0.14,0.64,0c1.14-0.68,2.3-1.35,3.46-2c0.24-0.14,0.31-0.3,0.31-0.56c-0.01-1.88-0.01-3.76-0.01-5.64
			c0-0.16,0-0.32,0-0.48c0.04-0.03,0.07-0.06,0.11-0.09c0.55,0.45,1.16,0.85,1.65,1.36c2.92,3.03,3.2,7.43,0.65,10.76
			c-0.56,0.72-1.33,1.29-2.05,1.87c-0.28,0.23-0.41,0.42-0.41,0.79c0.02,8.82,0.02,17.64,0.03,26.46c0,1.4-0.42,2.62-1.6,3.43
			c-0.54,0.37-1.23,0.53-1.85,0.79C13.32,47.39,13.03,47.39,12.73,47.39z M14.46,44.17c-0.01-0.81-0.67-1.48-1.47-1.47
			c-0.8,0.01-1.48,0.67-1.49,1.47c-0.01,0.82,0.67,1.5,1.5,1.48C13.82,45.64,14.46,44.99,14.46,44.17z"/>
		<path class="st18" d="M18.69,31.59c0-0.15-0.01-0.3-0.01-0.45c4.33,0,8.65,0,12.98,0c0-0.56,0-1.07,0-1.59c-0.2,0-0.36,0-0.53,0
			c-2.78,0-5.56,0-8.34,0c-1.37,0-2.75,0.01-4.12,0.02c0-2.35,0-4.7,0-7.1c7.1,0,14.2,0,21.37,0c-0.17-0.7-0.33-1.34-0.49-1.98
			c-0.48-1.89-0.9-3.8-1.45-5.67c-0.61-2.08-2.38-3.38-4.55-3.47c-0.71-0.03-1.42-0.01-2.13-0.01c-2.8,0-5.6,0-8.39,0
			c-0.16,0-0.32,0-0.54,0c0.08-0.37,0.14-0.72,0.23-1.05c0.02-0.07,0.17-0.16,0.27-0.16c3.55,0.01,7.11-0.09,10.65,0.07
			c2.9,0.13,5.13,2.05,5.89,4.86c0.65,2.4,1.14,4.83,1.7,7.25c0.06,0.27,0.09,0.56,0.2,0.82c0.08,0.22,0.25,0.4,0.38,0.6
			c0.05-0.02,0.1-0.05,0.15-0.07c0.12-1.04,0.23-2.08,0.36-3.12c0.02-0.15,0.12-0.37,0.23-0.41c1.62-0.57,3.27-1.03,5.01-1.05
			c0.21,0,0.41,0.03,0.62,0.07c0.81,0.17,1.12,0.49,1.17,1.32c0.05,0.87,0.05,1.74,0.07,2.62c0.01,0.37-0.15,0.5-0.53,0.52
			c-1.92,0.08-3.84,0.19-5.76,0.29c-0.22,0.01-0.44,0.04-0.54,0.05c0.25,0.3,0.54,0.64,0.82,0.97c0.66,0.77,1.05,1.64,1.05,2.66
			c0.01,2.28,0.03,4.56,0,6.84c-0.03,2-1.2,3.27-2.91,4.1c-0.36,0.17-0.5,0.34-0.48,0.75c0.03,1.05-0.03,2.1,0.02,3.15
			c0.07,1.31-0.52,2.2-1.66,2.72c-2.01,0.91-3.99,0.86-5.85-0.43c-0.67-0.47-0.99-1.15-0.98-1.98c0.01-1.04,0-2.07,0-3.11
			c0-0.13-0.02-0.26-0.03-0.44c-4.63,0-9.24,0-13.87,0c-0.01-0.15-0.03-0.25-0.03-0.34c0-1.78,0-3.55,0-5.33
			c0-0.1,0.02-0.21,0.03-0.31l-0.02,0.01c4.28,0,8.57,0,12.85,0c0-0.56,0-1.07,0-1.6c-0.23,0-0.42,0-0.61,0
			c-4.08,0-8.16-0.01-12.24-0.01L18.69,31.59z M33.66,33.04c2.57,0,5.08,0,7.62,0c0-1.21,0-2.39,0-3.58c-2.55,0-5.07,0-7.62,0
			C33.66,30.66,33.66,31.83,33.66,33.04z"/>
		<polygon class="st19" points="49.55,23.73 42.46,23.73 42.46,19.85 48.7,19.43 		"/>
		<path class="st20" d="M18.69,31.59c0-0.15-0.01-0.3-0.01-0.45c4.33,0,8.65,0,12.98,0c0-0.56,0-1.07,0-1.59c-0.2,0-0.36,0-0.53,0
			c-2.78,0-5.56,0-8.34,0c-1.37,0-2.75,0.01-4.12,0.02c0-2.35,0-4.7,0-7.1c7.1,0,14.2,0,21.37,0c-0.17-0.7-0.33-1.34-0.49-1.98
			c-0.48-1.89-0.9-3.8-1.45-5.67c-0.61-2.08-2.38-3.38-4.55-3.47c-0.71-0.03-1.42-0.01-2.13-0.01c-2.8,0-5.6,0-8.39,0
			c-0.16,0-0.32,0-0.54,0c0.08-0.37,0.14-0.72,0.23-1.05c0.02-0.07,0.17-0.16,0.27-0.16c3.55,0.01,7.11-0.09,10.65,0.07
			c2.9,0.13,5.13,2.05,5.89,4.86c0.65,2.4,1.14,4.83,1.7,7.25c0.06,0.27,0.09,0.56,0.2,0.82c0.08,0.22,0.25,0.4,0.38,0.6
			c0.05-0.02,0.1-0.05,0.15-0.07c0.12-1.04,0.23-2.08,0.36-3.12c0.02-0.15,0.12-0.37,0.23-0.41c1.62-0.57,3.27-1.03,5.01-1.05
			c0.21,0,0.41,0.03,0.62,0.07c0.81,0.17,1.12,0.49,1.17,1.32c0.05,0.87,0.05,1.74,0.07,2.62c0.01,0.37-0.15,0.5-0.53,0.52
			c-1.92,0.08-3.84,0.19-5.76,0.29c-0.22,0.01-0.44,0.04-0.54,0.05c0.25,0.3,0.54,0.64,0.82,0.97c0.66,0.77,1.05,1.64,1.05,2.66
			c0.01,2.28,0.03,4.56,0,6.84c-0.03,2-1.2,3.27-2.91,4.1c-0.36,0.17-0.5,0.34-0.48,0.75c0.03,1.05-0.03,2.1,0.02,3.15
			c0.07,1.31-0.52,2.2-1.66,2.72c-2.01,0.91-3.99,0.86-5.85-0.43c-0.67-0.47-0.99-1.15-0.98-1.98c0.01-1.04,0-2.07,0-3.11
			c0-0.13-0.02-0.26-0.03-0.44c-4.63,0-9.24,0-13.87,0c-0.01-0.15-0.03-0.25-0.03-0.34c0-1.78,0-3.55,0-5.33
			c0-0.1,0.02-0.21,0.03-0.31l-0.02,0.01c4.28,0,8.57,0,12.85,0c0-0.56,0-1.07,0-1.6c-0.23,0-0.42,0-0.61,0
			c-4.08,0-8.16-0.01-12.24-0.01L18.69,31.59z M33.66,33.04c2.57,0,5.08,0,7.62,0c0-1.21,0-2.39,0-3.58c-2.55,0-5.07,0-7.62,0
			C33.66,30.66,33.66,31.83,33.66,33.04z"/>
		<path class="st15" d="M18.68,29.56c1.37-0.01,2.75-0.01,4.12-0.02c2.78,0,5.56,0,8.34,0c0.16,0,0.32,0,0.53,0
			c0,0.53,0,1.03,0,1.59c-4.33,0-8.66,0-12.98,0C18.68,30.61,18.68,30.08,18.68,29.56z"/>
		<path d="M18.69,33.17c-0.08-0.06-0.22-0.11-0.22-0.17c-0.02-0.41-0.02-0.82,0-1.23c0-0.07,0.14-0.13,0.22-0.19
			c0,0-0.01-0.01-0.01-0.01c0,0.54,0,1.07,0,1.61L18.69,33.17z"/>
		<path class="st15" d="M14.46,44.17c0.01,0.82-0.64,1.47-1.45,1.48c-0.83,0.01-1.51-0.66-1.5-1.48c0.01-0.79,0.69-1.46,1.49-1.47
			C13.79,42.7,14.45,43.36,14.46,44.17z"/>
		<path class="st15" d="M33.66,33.04c0-1.21,0-2.38,0-3.58c2.55,0,5.07,0,7.62,0c0,1.19,0,2.37,0,3.58
			C38.74,33.04,36.22,33.04,33.66,33.04z"/>
		<path class="st15" d="M18.68,33.19c0-0.54,0-1.07,0-1.61c4.08,0,8.16,0.01,12.24,0.01c0.19,0,0.38,0,0.61,0c0,0.53,0,1.04,0,1.6
			C27.24,33.19,22.96,33.19,18.68,33.19z"/>
	</g>
</g>
<g id="Layer_7">
	<g>
		<path class="st19" d="M23.07,37.99c-2.09,0-5.68-0.77-5.68-0.77s-0.57-2.51-1.63-3.54c-2.85-2.78-6.29-7.05-6.29-11.79
			c0-9.39,6.85-15.5,13.6-15.5V37.99z"/>
		<path d="M39.13,1.14c0.17,0.27,0.37,0.52,0.49,0.81c0.13,0.32,0.21,0.66,0.24,1c0.05,0.5,0.28,0.75,0.77,0.9
			c0.34,0.1,0.57,0.1,0.84-0.14c0.35-0.31,0.74-0.58,1.12-0.87c0.37-0.29,0.72-0.27,1.06,0.04c0.56,0.5,1.12,1.01,1.68,1.51
			c0.35,0.31,0.39,0.66,0.14,1.05c-0.28,0.44-0.55,0.88-0.82,1.32C44.4,7.18,44.8,8.03,45.29,8.1c0.53,0.07,1.06,0.14,1.59,0.2
			c0.4,0.05,0.64,0.27,0.67,0.67c0.06,0.81,0.11,1.63,0.13,2.45c0.01,0.42-0.24,0.66-0.64,0.75c-0.53,0.12-1.07,0.24-1.6,0.38
			c-0.39,0.1-0.7,0.99-0.46,1.31c0.31,0.41,0.64,0.82,0.95,1.23c0.34,0.45,0.34,0.72-0.03,1.13c-0.48,0.54-0.97,1.08-1.46,1.6
			c-0.39,0.42-0.66,0.45-1.16,0.15c-0.22-0.13-0.45-0.24-0.64-0.4c-0.65-0.6-1.29-0.55-1.99,0.01c0.17,0.44,0.33,0.93,0.54,1.4
			c0.17,0.39,0.16,0.74-0.02,1.12c-0.41,0.88-0.78,1.77-1.21,2.74c0.23,0,0.39,0,0.56,0c2.45,0,4.9,0,7.35,0c0.76,0,1,0.23,1,0.97
			c0,3.88,0.01,7.76-0.01,11.64c0,0.31-0.16,0.68-0.37,0.91c-0.85,0.96-1.76,1.88-2.63,2.83c-0.27,0.29-0.56,0.4-0.96,0.4
			c-1.71-0.01-3.43,0-5.14,0c-0.11,0-0.21,0.01-0.33,0.08c0.29,0.06,0.57,0.11,0.86,0.17c0.41,0.08,0.63,0.33,0.63,0.75
			c0,0.63,0,1.26,0.01,1.89c0,0.45-0.23,0.7-0.66,0.78c-0.32,0.06-0.65,0.11-0.97,0.17c-0.69,0.13-0.88,0.61-0.47,1.19
			c0.2,0.28,0.4,0.56,0.59,0.85c0.22,0.33,0.19,0.66-0.09,0.94c-0.45,0.46-0.91,0.92-1.37,1.37c-0.29,0.28-0.61,0.3-0.95,0.09
			c-0.29-0.19-0.57-0.39-0.85-0.59c-0.61-0.42-1.08-0.21-1.2,0.54c-0.05,0.33-0.11,0.65-0.18,0.97c-0.08,0.39-0.33,0.6-0.73,0.61
			c-0.64,0.01-1.29,0.01-1.93,0c-0.42-0.01-0.67-0.23-0.74-0.65c-0.06-0.32-0.13-0.65-0.18-0.97c-0.12-0.72-0.62-0.92-1.23-0.5
			c-0.27,0.19-0.54,0.38-0.81,0.56c-0.33,0.22-0.66,0.21-0.94-0.07c-0.48-0.46-0.94-0.92-1.4-1.4c-0.27-0.29-0.3-0.61-0.07-0.94
			c0.19-0.29,0.39-0.57,0.59-0.85c0.39-0.57,0.17-1.07-0.52-1.19c-0.34-0.06-0.68-0.12-1.02-0.19c-0.4-0.08-0.6-0.34-0.61-0.73
			c-0.02-0.64-0.02-1.29-0.01-1.93c0.01-0.42,0.23-0.67,0.65-0.75c0.32-0.06,0.65-0.12,0.97-0.18c0.72-0.13,0.92-0.59,0.5-1.19
			c-0.19-0.27-0.38-0.54-0.57-0.81c-0.25-0.36-0.23-0.71,0.08-1.02c0.43-0.44,0.87-0.87,1.3-1.3c0.33-0.33,0.69-0.34,1.06-0.08
			c0.27,0.19,0.57,0.35,0.8,0.57c0.35,0.34,0.72,0.21,0.96-0.02c0.19-0.18,0.2-0.56,0.25-0.86c0.01-0.05-0.13-0.16-0.22-0.2
			c-2.28-1-4.57-2-6.85-3c-0.03-0.01-0.06,0-0.16,0c0,0.18,0,0.35,0,0.53c0,5.41,0,10.81,0,16.22c0,0.34-0.01,0.67-0.37,0.85
			c-0.5,0.25-1.03-0.08-1.05-0.67c-0.02-0.8,0-1.6,0-2.46c-0.36,0-0.68,0-1.01,0c-2.4-0.02-4.09-1.72-4.09-4.11
			c0-0.96,0.01-1.92-0.01-2.88c0-0.15-0.14-0.37-0.28-0.44c-0.99-0.51-1.51-1.3-1.51-2.41c0-0.61,0.19-1.32-0.06-1.81
			c-0.24-0.48-0.93-0.73-1.42-1.09c-5.1-3.76-7.35-10.38-5.58-16.48c0.03-0.09,0.05-0.18,0.08-0.27c0.16-0.45,0.48-0.62,0.92-0.49
			c0.4,0.13,0.58,0.45,0.45,0.89c-0.38,1.3-0.63,2.63-0.6,3.99c0.1,5.29,2.41,9.33,6.94,12.07c0.51,0.31,0.74,0.65,0.7,1.24
			c-0.04,0.66-0.02,1.32-0.01,1.98c0.01,0.61,0.38,1.1,0.94,1.11c1.49,0.04,2.98,0.01,4.49,0.01c0-10.05,0-20.07,0-30.22
			c-1.06,0.21-2.11,0.34-3.1,0.62c-3.12,0.89-5.6,2.71-7.47,5.35c-0.08,0.12-0.16,0.24-0.24,0.35c-0.3,0.4-0.67,0.49-1.01,0.25
			c-0.37-0.27-0.44-0.65-0.16-1.07c1.01-1.54,2.26-2.86,3.75-3.94c2.38-1.74,5.05-2.7,7.99-2.9c0.08-0.01,0.15-0.02,0.28-0.03
			c0-0.94,0-1.86,0-2.78c0-0.17-0.01-0.35,0.04-0.51c0.1-0.38,0.39-0.52,0.76-0.49c0.35,0.03,0.6,0.22,0.61,0.6
			c0.02,0.5,0.01,1.01,0.01,1.51c0,2.99,0,5.97,0,8.96c0,0.15,0,0.3,0,0.44c0.03,0.01,0.06,0.01,0.09,0.02
			c0.06-0.13,0.13-0.27,0.19-0.4c0.81-1.85,1.63-3.71,2.44-5.56c0.32-0.73,0.59-0.84,1.32-0.53c1.01,0.44,2.01,0.88,3.01,1.32
			c0.43-0.69,0.43-0.69-0.04-1.3c-0.25-0.32-0.51-0.64-0.75-0.97c-0.31-0.42-0.29-0.69,0.06-1.09c0.49-0.55,0.99-1.09,1.49-1.64
			c0.31-0.35,0.66-0.39,1.05-0.15c0.44,0.27,0.88,0.55,1.32,0.82c0.44,0.27,1.28-0.12,1.36-0.64c0.07-0.5,0.12-1,0.2-1.49
			C35.79,1.47,36,1.3,36.55,1.25c0.45-0.04,0.9-0.07,1.35-0.11C38.31,1.14,38.72,1.14,39.13,1.14z M32.26,33.68c0-0.23,0-0.4,0-0.57
			c0-1.93,0.01-3.87,0-5.8c0-0.56,0.14-1.02,0.56-1.43c0.83-0.82,1.61-1.67,2.39-2.54c0.32-0.35,0.66-0.54,1.15-0.51
			c0.58,0.03,1.16,0.02,1.74,0c0.14-0.01,0.35-0.09,0.4-0.2c0.42-0.89,0.8-1.8,1.21-2.72c-0.18-0.08-0.31-0.15-0.45-0.21
			c-1.25-0.55-2.5-1.1-3.74-1.66c-0.64-0.29-0.76-0.59-0.47-1.23c0.55-1.26,1.11-2.53,1.67-3.79c0.05-0.12,0.1-0.25,0.15-0.4
			c-3.02-1.32-6-2.63-9.01-3.95c-0.06,0.11-0.11,0.19-0.14,0.27c-1.21,2.76-2.42,5.51-3.63,8.28c-0.07,0.17-0.11,0.36-0.11,0.55
			c-0.01,3.99,0,7.98-0.01,11.97c0,0.28,0.1,0.41,0.35,0.52c2.5,1.09,5,2.19,7.5,3.28C31.94,33.58,32.07,33.61,32.26,33.68z
			 M45.91,37.04c0.47-0.5,0.87-0.87,1.2-1.29c0.17-0.21,0.31-0.51,0.31-0.78c0.02-3,0.01-6,0.01-9c0-0.15-0.02-0.29-0.03-0.54
			c-0.47,0.5-0.88,0.91-1.25,1.35c-0.13,0.16-0.23,0.41-0.24,0.62c-0.02,1.13-0.01,2.26-0.01,3.39c0,0.55-0.27,0.83-0.74,0.83
			c-0.46-0.01-0.69-0.26-0.7-0.81c-0.01-0.94,0-1.89,0-2.83c0-0.16-0.02-0.33-0.03-0.49c-3.59,0-7.12,0-10.67,0
			c0,2.06,0,4.09,0,6.11c0.83,0.15,0.89,0.22,1.05,1.05c0.04,0.23,0.09,0.46,0.14,0.69c0.13,0.63,0.61,0.82,1.15,0.45
			c0.27-0.19,0.54-0.37,0.81-0.56c0.38-0.26,0.74-0.23,1.06,0.1c0.44,0.43,0.87,0.86,1.3,1.3c0.31,0.31,0.33,0.66,0.1,1.03
			c-0.1,0.15-0.19,0.3-0.32,0.5c1.76,0,3.43,0,5.09,0c0.31,0,0.31-0.17,0.31-0.4c0-1.02-0.01-2.04,0.01-3.06
			c0.01-0.56,0.46-0.88,0.95-0.71c0.37,0.13,0.49,0.41,0.49,0.78C45.91,35.48,45.91,36.19,45.91,37.04z M33.98,9.73
			c0.76-2.13,2.18-3.32,4.41-3.19c1.91,0.11,3.39,1.39,3.75,3.11c0.49,2.31-0.51,3.91-2.57,4.95c0.1,0.26,0.19,0.51,0.28,0.76
			c0.1,0.24,0.2,0.48,0.32,0.77c0.36-0.18,0.69-0.32,0.99-0.51c0.41-0.26,0.79-0.25,1.18,0.02c0.15,0.11,0.32,0.2,0.48,0.3
			c0.93,0.58,0.93,0.58,1.59-0.3c0.01-0.01,0.01-0.03,0.02-0.08c-0.15-0.2-0.28-0.43-0.47-0.61c-0.68-0.68-0.76-1.33-0.41-2.3
			c0.53-1.47,0.51-1.29,1.94-1.64c0.71-0.17,0.8-0.29,0.65-1.03c-0.03-0.13-0.21-0.3-0.34-0.33c-0.43-0.09-0.86-0.15-1.3-0.19
			c-0.43-0.03-0.68-0.26-0.84-0.64c-0.17-0.42-0.35-0.84-0.58-1.23c-0.24-0.4-0.23-0.75,0.03-1.13c0.3-0.44,0.56-0.89,0.85-1.35
			c-0.31-0.28-0.58-0.51-0.88-0.78c-0.45,0.34-0.89,0.67-1.32,1.01c-0.33,0.26-0.66,0.29-1.05,0.12c-0.41-0.19-0.84-0.33-1.28-0.45
			c-0.45-0.12-0.69-0.39-0.78-0.83c-0.08-0.41-0.18-0.83-0.29-1.23c-0.03-0.11-0.15-0.25-0.25-0.27c-0.79-0.17-1.03,0.01-1.1,0.81
			c0,0.05-0.01,0.09-0.01,0.14c-0.02,0.85-0.26,1.54-1.23,1.71c-0.09,0.01-0.18,0.06-0.25,0.12c-0.76,0.63-1.49,0.51-2.19-0.1
			c-0.04-0.03-0.08-0.05-0.12-0.07c-0.81-0.48-0.56-0.5-1.24,0.19c-0.2,0.2-0.2,0.34-0.02,0.55c0.28,0.32,0.52,0.67,0.79,1
			c0.28,0.34,0.31,0.69,0.12,1.09c-0.15,0.3-0.25,0.62-0.38,0.95C32.99,9.3,33.46,9.5,33.98,9.73z M28.25,37.21
			c0.16,0.24,0.25,0.41,0.37,0.55c0.55,0.6,0.54,1.16,0.24,1.95c-0.34,0.91-0.81,1.34-1.74,1.36c-0.24,0-0.46,0.08-0.45,0.41
			c0.01,0.31,0.11,0.46,0.44,0.47c0.22,0.01,0.43,0.08,0.65,0.11c0.49,0.07,0.79,0.33,0.92,0.81c0.08,0.3,0.22,0.59,0.36,0.86
			c0.2,0.39,0.19,0.74-0.07,1.1c-0.22,0.3-0.43,0.62-0.66,0.95c0.17,0.19,0.33,0.36,0.49,0.53c0.33-0.23,0.61-0.4,0.87-0.6
			c0.42-0.33,0.83-0.38,1.3-0.1c0.24,0.14,0.51,0.25,0.78,0.32c0.49,0.13,0.74,0.43,0.8,0.92c0.03,0.2,0.08,0.4,0.1,0.6
			c0.03,0.28,0.08,0.51,0.46,0.51c0.4-0.01,0.42-0.26,0.43-0.53c0.05-0.85,0.41-1.31,1.26-1.67c0.89-0.37,1.53-0.33,2.2,0.3
			c0.21,0.2,0.39,0.24,0.64,0c0.25-0.25,0.12-0.42-0.04-0.6c-0.6-0.67-0.67-1.29-0.32-2.2c0.37-0.96,0.96-1.22,1.8-1.29
			c0.29-0.03,0.39-0.15,0.39-0.45c-0.01-0.3-0.15-0.37-0.4-0.39c-0.92-0.05-1.47-0.44-1.84-1.4c-0.32-0.82-0.28-1.38,0.26-1.99
			c0.04-0.05,0.07-0.1,0.11-0.15c0.19-0.29,0.09-0.68-0.23-0.72c-0.18-0.02-0.41,0.12-0.56,0.26c-0.6,0.52-1.2,0.71-1.9,0.19
			c-0.11-0.08-0.26-0.12-0.39-0.15c-0.58-0.12-0.9-0.46-0.94-1.06c-0.01-0.14-0.04-0.28-0.07-0.42c-0.12-0.63-0.12-0.63-0.84-0.52
			c-0.16,0.88-0.11,1.94-1.39,2.09c-1.03,0.82-1.74-0.03-2.47-0.49C28.6,36.94,28.44,37.06,28.25,37.21z M18.87,38.99
			c0,1.04,0.01,2.06,0,3.07c-0.03,1.76,1.36,3.1,3.64,2.61c0-1.89,0-3.78,0-5.68C21.29,38.99,20.1,38.99,18.87,38.99z M38.96,13.18
			c1.19-0.35,1.99-1.6,1.82-2.8C40.59,9,39.53,8.03,38.17,8c-1.31-0.03-2.51,0.89-2.72,2.08c-0.04,0.24,0.01,0.37,0.25,0.47
			c0.49,0.2,0.96,0.47,1.47,0.62c0.9,0.28,1.49,0.81,1.68,1.75C38.87,13.01,38.93,13.09,38.96,13.18z M34.83,25.89
			c0.14,0.03,0.2,0.05,0.25,0.05c3.19,0,6.37,0,9.56,0c0.1,0,0.24-0.01,0.31-0.07c0.47-0.47,0.92-0.96,1.44-1.51
			c-0.2-0.03-0.31-0.05-0.41-0.05c-3.11,0-6.22,0-9.33,0c-0.14,0-0.32,0.01-0.4,0.09C35.78,24.87,35.33,25.36,34.83,25.89z
			 M36.55,16.92c0.93,0.41,1.82,0.8,2.8,1.23c-0.54-1.39-1.04-2.66-1.57-4.02C37.34,15.12,36.95,16,36.55,16.92z"/>
		<path d="M3.84,21.99c-0.55,0-1.1,0.01-1.64,0c-0.46-0.01-0.71-0.26-0.72-0.69c-0.01-0.43,0.24-0.72,0.69-0.72
			c1.14-0.02,2.29-0.02,3.43,0c0.44,0.01,0.7,0.32,0.68,0.74c-0.02,0.4-0.27,0.66-0.7,0.67C5,22,4.42,21.99,3.84,21.99z"/>
		<path d="M11.71,33.84c-0.15,0.24-0.23,0.44-0.36,0.57c-0.76,0.77-1.52,1.54-2.29,2.29c-0.36,0.36-0.76,0.36-1.07,0.04
			c-0.3-0.31-0.28-0.68,0.07-1.04c0.77-0.78,1.55-1.55,2.32-2.33c0.23-0.23,0.52-0.35,0.8-0.16C11.39,33.37,11.53,33.62,11.71,33.84
			z"/>
		<path d="M8.26,5.39C8.5,5.55,8.69,5.63,8.83,5.77c0.77,0.76,1.54,1.52,2.3,2.29c0.35,0.35,0.35,0.76,0.04,1.08
			c-0.29,0.29-0.68,0.27-1.03-0.08C9.35,8.29,8.58,7.51,7.81,6.74c-0.23-0.23-0.36-0.51-0.16-0.8C7.79,5.73,8.04,5.59,8.26,5.39z"/>
		<path class="st18" d="M32.26,33.68c-0.19-0.07-0.33-0.1-0.45-0.16c-2.5-1.09-5-2.19-7.5-3.28c-0.25-0.11-0.35-0.23-0.35-0.52
			c0.01-3.99,0.01-7.98,0.01-11.97c0-0.18,0.03-0.38,0.11-0.55c1.2-2.76,2.42-5.52,3.63-8.28c0.04-0.08,0.09-0.16,0.14-0.27
			c3,1.32,5.99,2.63,9.01,3.95c-0.06,0.14-0.1,0.27-0.15,0.4c-0.56,1.26-1.12,2.53-1.67,3.79c-0.28,0.65-0.17,0.95,0.47,1.23
			c1.25,0.56,2.5,1.11,3.74,1.66c0.14,0.06,0.28,0.13,0.45,0.21c-0.41,0.92-0.79,1.83-1.21,2.72c-0.05,0.11-0.26,0.2-0.4,0.2
			c-0.58,0.02-1.16,0.03-1.74,0c-0.49-0.03-0.83,0.16-1.15,0.51c-0.78,0.86-1.57,1.72-2.39,2.54c-0.42,0.41-0.56,0.87-0.56,1.43
			c0.01,1.93,0,3.86,0,5.8C32.26,33.28,32.26,33.44,32.26,33.68z"/>
		<path class="st18" d="M45.91,37.04c0-0.85,0-1.57,0-2.28c0-0.36-0.12-0.65-0.49-0.78c-0.49-0.17-0.94,0.15-0.95,0.71
			c-0.02,1.02-0.01,2.04-0.01,3.06c0,0.22-0.01,0.4-0.31,0.4c-1.66-0.01-3.33,0-5.09,0c0.13-0.21,0.23-0.35,0.32-0.5
			c0.24-0.37,0.21-0.71-0.1-1.03c-0.43-0.44-0.86-0.87-1.3-1.3c-0.33-0.32-0.68-0.36-1.06-0.1c-0.27,0.19-0.54,0.38-0.81,0.56
			c-0.54,0.37-1.03,0.18-1.15-0.45c-0.05-0.23-0.09-0.46-0.14-0.69c-0.16-0.83-0.22-0.9-1.05-1.05c0-2.02,0-4.05,0-6.11
			c3.55,0,7.08,0,10.67,0c0.01,0.16,0.03,0.32,0.03,0.49c0,0.94,0,1.89,0,2.83c0.01,0.55,0.24,0.81,0.7,0.81
			c0.48,0.01,0.74-0.27,0.74-0.83c0.01-1.13-0.01-2.26,0.01-3.39c0-0.21,0.1-0.46,0.24-0.62c0.37-0.44,0.78-0.85,1.25-1.35
			c0.02,0.25,0.03,0.39,0.03,0.54c0,3,0.01,6-0.01,9c0,0.26-0.15,0.56-0.31,0.78C46.78,36.17,46.38,36.55,45.91,37.04z"/>
		<g>
			<path class="st21" d="M33.98,9.73c-0.52-0.22-0.99-0.43-1.53-0.66c0.13-0.33,0.23-0.65,0.38-0.95c0.2-0.4,0.17-0.75-0.12-1.09
				c-0.27-0.33-0.51-0.68-0.79-1c-0.18-0.21-0.18-0.35,0.02-0.55c0.68-0.69,0.43-0.67,1.24-0.19c0.04,0.02,0.08,0.04,0.12,0.07
				c0.7,0.61,1.43,0.73,2.19,0.1c0.07-0.06,0.16-0.11,0.25-0.12c0.98-0.16,1.22-0.85,1.23-1.71c0-0.05,0-0.09,0.01-0.14
				c0.07-0.79,0.31-0.97,1.1-0.81c0.1,0.02,0.22,0.16,0.25,0.27c0.12,0.41,0.21,0.82,0.29,1.23c0.09,0.45,0.33,0.71,0.78,0.83
				c0.44,0.12,0.87,0.26,1.28,0.45c0.39,0.18,0.72,0.15,1.05-0.12c0.43-0.34,0.87-0.66,1.32-1.01c0.3,0.26,0.56,0.5,0.88,0.78
				c-0.29,0.46-0.55,0.92-0.85,1.35c-0.26,0.38-0.27,0.73-0.03,1.13c0.23,0.39,0.41,0.81,0.58,1.23c0.16,0.38,0.41,0.61,0.84,0.64
				c0.44,0.04,0.87,0.09,1.3,0.19c0.14,0.03,0.32,0.19,0.34,0.33c0.16,0.74,0.06,0.86-0.65,1.03c-1.43,0.34-1.41,0.17-1.94,1.64
				c-0.35,0.98-0.27,1.62,0.41,2.3c0.19,0.18,0.32,0.42,0.47,0.61c-0.01,0.05-0.01,0.06-0.02,0.08c-0.66,0.88-0.66,0.88-1.59,0.3
				c-0.16-0.1-0.33-0.19-0.48-0.3c-0.39-0.28-0.77-0.28-1.18-0.02c-0.3,0.19-0.63,0.33-0.99,0.51c-0.12-0.29-0.22-0.53-0.32-0.77
				c-0.1-0.25-0.19-0.5-0.28-0.76c2.06-1.04,3.06-2.64,2.57-4.95c-0.37-1.72-1.84-3-3.75-3.11C36.16,6.41,34.74,7.6,33.98,9.73z"/>
			<path class="st19" d="M33.98,9.73c-0.52-0.22-0.99-0.43-1.53-0.66c0.13-0.33,0.23-0.65,0.38-0.95c0.2-0.4,0.17-0.75-0.12-1.09
				c-0.27-0.33-0.51-0.68-0.79-1c-0.18-0.21-0.18-0.35,0.02-0.55c0.68-0.69,0.43-0.67,1.24-0.19c0.04,0.02,0.08,0.04,0.12,0.07
				c0.7,0.61,1.43,0.73,2.19,0.1c0.07-0.06,0.16-0.11,0.25-0.12c0.98-0.16,1.22-0.85,1.23-1.71c0-0.05,0-0.09,0.01-0.14
				c0.07-0.79,0.31-0.97,1.1-0.81c0.1,0.02,0.22,0.16,0.25,0.27c0.12,0.41,0.21,0.82,0.29,1.23c0.09,0.45,0.33,0.71,0.78,0.83
				c0.44,0.12,0.87,0.26,1.28,0.45c0.39,0.18,0.72,0.15,1.05-0.12c0.43-0.34,0.87-0.66,1.32-1.01c0.3,0.26,0.56,0.5,0.88,0.78
				c-0.29,0.46-0.55,0.92-0.85,1.35c-0.26,0.38-0.27,0.73-0.03,1.13c0.23,0.39,0.41,0.81,0.58,1.23c0.16,0.38,0.41,0.61,0.84,0.64
				c0.44,0.04,0.87,0.09,1.3,0.19c0.14,0.03,0.32,0.19,0.34,0.33c0.16,0.74,0.06,0.86-0.65,1.03c-1.43,0.34-1.41,0.17-1.94,1.64
				c-0.35,0.98-0.27,1.62,0.41,2.3c0.19,0.18,0.32,0.42,0.47,0.61c-0.01,0.05-0.01,0.06-0.02,0.08c-0.66,0.88-0.66,0.88-1.59,0.3
				c-0.16-0.1-0.33-0.19-0.48-0.3c-0.39-0.28-0.77-0.28-1.18-0.02c-0.3,0.19-0.63,0.33-0.99,0.51c-0.12-0.29-0.22-0.53-0.32-0.77
				c-0.1-0.25-0.19-0.5-0.28-0.76c2.06-1.04,3.06-2.64,2.57-4.95c-0.37-1.72-1.84-3-3.75-3.11C36.16,6.41,34.74,7.6,33.98,9.73z"/>
		</g>
		<path class="st19" d="M28.25,37.21c0.19-0.14,0.35-0.27,0.56-0.44c0.72,0.47,1.44,1.32,2.47,0.49c1.28-0.15,1.23-1.21,1.39-2.09
			c0.72-0.12,0.72-0.12,0.84,0.52c0.03,0.14,0.06,0.28,0.07,0.42c0.04,0.6,0.36,0.94,0.94,1.06c0.14,0.03,0.28,0.07,0.39,0.15
			c0.7,0.52,1.3,0.33,1.9-0.19c0.15-0.13,0.39-0.28,0.56-0.26c0.32,0.04,0.42,0.43,0.23,0.72c-0.03,0.05-0.07,0.11-0.11,0.15
			c-0.54,0.61-0.58,1.17-0.26,1.99c0.37,0.96,0.91,1.34,1.84,1.4c0.26,0.02,0.4,0.09,0.4,0.39c0.01,0.3-0.09,0.43-0.39,0.45
			c-0.85,0.08-1.43,0.33-1.8,1.29c-0.35,0.91-0.28,1.53,0.32,2.2c0.16,0.18,0.29,0.34,0.04,0.6c-0.25,0.24-0.43,0.2-0.64,0
			c-0.67-0.63-1.31-0.67-2.2-0.3c-0.85,0.35-1.22,0.82-1.26,1.67c-0.01,0.27-0.04,0.53-0.43,0.53c-0.39,0.01-0.43-0.22-0.46-0.51
			c-0.02-0.2-0.08-0.4-0.1-0.6c-0.06-0.49-0.31-0.8-0.8-0.92c-0.27-0.07-0.54-0.18-0.78-0.32c-0.47-0.28-0.88-0.24-1.3,0.1
			c-0.26,0.2-0.54,0.38-0.87,0.6c-0.16-0.18-0.32-0.34-0.49-0.53c0.23-0.33,0.43-0.65,0.66-0.95c0.26-0.36,0.28-0.71,0.07-1.1
			c-0.14-0.28-0.28-0.57-0.36-0.86c-0.13-0.48-0.43-0.74-0.92-0.81c-0.22-0.03-0.43-0.1-0.65-0.11c-0.32-0.01-0.43-0.16-0.44-0.47
			c-0.01-0.34,0.21-0.41,0.45-0.41c0.93-0.02,1.4-0.45,1.74-1.36c0.3-0.79,0.32-1.35-0.24-1.95C28.5,37.62,28.41,37.44,28.25,37.21z
			 M36.33,41.55c0-1.84-1.44-3.28-3.28-3.28c-1.8,0-3.28,1.46-3.28,3.25c0,1.79,1.52,3.3,3.31,3.31
			C34.88,44.82,36.33,43.36,36.33,41.55z"/>
		<path class="st18" d="M18.87,38.99c1.23,0,2.42,0,3.63,0c0,1.9,0,3.79,0,5.68c-2.28,0.48-3.66-0.86-3.64-2.61
			C18.88,41.04,18.87,40.03,18.87,38.99z"/>
		<path class="st18" d="M38.96,13.18c-0.04-0.08-0.1-0.16-0.11-0.25c-0.19-0.94-0.78-1.48-1.68-1.75c-0.51-0.15-0.98-0.43-1.47-0.62
			c-0.23-0.09-0.29-0.23-0.25-0.47c0.22-1.19,1.42-2.11,2.72-2.08c1.35,0.03,2.42,1,2.61,2.38C40.95,11.58,40.15,12.82,38.96,13.18z
			"/>
		<path class="st19" d="M34.83,25.89c0.5-0.53,0.95-1.02,1.43-1.49c0.08-0.08,0.26-0.09,0.4-0.09c3.11,0,6.22,0,9.33,0
			c0.1,0,0.21,0.02,0.41,0.05c-0.51,0.54-0.97,1.03-1.44,1.51c-0.06,0.06-0.2,0.07-0.31,0.07c-3.19,0-6.37,0-9.56,0
			C35.02,25.94,34.97,25.92,34.83,25.89z"/>
		<path class="st22" d="M36.55,16.92c0.4-0.92,0.79-1.8,1.23-2.79c0.53,1.36,1.03,2.63,1.57,4.02
			C38.37,17.72,37.48,17.33,36.55,16.92z"/>
		<path d="M36.33,41.55c0,1.81-1.45,3.27-3.25,3.27c-1.79,0-3.31-1.52-3.31-3.31c0-1.79,1.47-3.25,3.28-3.25
			C34.89,38.26,36.33,39.71,36.33,41.55z M31.28,41.51c0,1.02,0.81,1.82,1.82,1.82c0.98,0,1.77-0.78,1.78-1.76
			c0.01-1-0.81-1.84-1.81-1.85C32.08,39.7,31.28,40.51,31.28,41.51z"/>
		<path class="st12" d="M31.28,41.51c0-1,0.8-1.8,1.79-1.79c1,0.01,1.82,0.85,1.81,1.85c-0.01,0.98-0.8,1.76-1.78,1.76
			C32.08,43.33,31.28,42.53,31.28,41.51z"/>
	</g>
</g>
<g id="Layer_8" class="st0">
	<g class="st1">
		<path class="st12" d="M-13.53,68.83c0,0.78,0,1.57,0,2.35c-36.57,0-73.14,0-109.73,0c0-36.57,0-73.13,0-109.73
			c36.57,0,73.15,0,109.73,0c0,17.88,0,35.78,0,53.67c-0.65-1.56-1.85-2.06-3.49-2.04c-4.92,0.06-9.84,0.02-14.75,0.02
			c-0.4,0-0.81-0.04-1.15-0.06c0-1.17,0.02-2.2-0.01-3.23c-0.03-1.16-0.57-1.78-1.53-1.8c-0.99-0.03-1.62,0.62-1.66,1.8
			c-0.03,1.06-0.01,2.12-0.01,3.29c-0.36,0-0.78,0-1.2,0c-4.99,0-9.98-0.01-14.97,0.01c-2.24,0.01-3.19,0.97-3.19,3.2
			c-0.01,3.53,0,7.06,0,10.59c0,2.31,0.93,3.24,3.24,3.25c4.95,0.01,9.91,0,14.86,0c0.38,0,0.76,0,1.16,0c0,1.15,0,2.15,0,3.22
			c-0.52,0-0.94,0-1.36,0c-4.92,0-9.84-0.01-14.75,0c-2.14,0-3.14,1.02-3.14,3.15c-0.01,3.56-0.01,7.13,0,10.69
			c0,2.26,0.98,3.22,3.28,3.22c4.95,0,9.91,0,14.86,0c0.38,0,0.76,0,1.16,0c0,1.13,0,2.11,0,3.22c-0.43,0-0.81,0-1.2,0
			c-5.02,0-10.05-0.01-15.07,0c-1.99,0-3.01,1.04-3.03,3.04c-0.01,0.93-0.02,1.85,0,2.78c0.02,0.63-0.05,1.09-0.71,1.47
			c-0.85,0.49-0.95,1.93-0.11,2.36c0.96,0.5,0.81,1.2,0.81,1.95c0.01,0.64,0,1.28,0,1.92c0,2.64,0.89,3.54,3.5,3.54
			c11.58,0,23.16-0.02,34.75,0.02C-15.58,70.75-14.31,70.34-13.53,68.83z M-76.15,3.4c0,0.56,0,0.95,0,1.33
			c0,2.53-0.03,5.06,0.01,7.59c0.02,1.42,1.13,2.2,2.28,1.68c0.81-0.37,0.94-1.08,0.94-1.88c-0.01-3.53,0-7.06,0-10.59
			c0-0.38,0.03-0.75,0.06-1.24c0.48,0.19,0.82,0.39,1.19,0.47c0.86,0.17,1.14,0.64,1.06,1.51c-0.08,0.96-0.04,1.92-0.01,2.89
			c0.04,1.68,0.98,2.82,2.63,2.93c1.77,0.12,3.56,0.12,5.33,0.01c1.68-0.11,2.62-1.21,2.68-2.89c0.04-0.96,0.06-1.93-0.01-2.89
			c-0.06-0.82,0.2-1.2,1-1.57c1.05-0.49,1.73-0.41,2.43,0.5c0.5,0.64,1.13,1.18,1.73,1.75c1.27,1.21,2.72,1.34,4.02,0.2
			c1.31-1.14,2.55-2.39,3.7-3.7c1.12-1.27,0.97-2.78-0.22-4.03c-0.61-0.65-1.21-1.33-1.9-1.88c-0.78-0.62-0.81-1.19-0.41-2.08
			c0.38-0.82,0.68-1.36,1.73-1.22c0.95,0.12,1.92,0.05,2.88,0.02c1.59-0.05,2.65-1.07,2.84-2.64c0.04-0.38,0.1-0.76,0.15-1.13
			c1.31-0.24,3.2,0.5,3.28-1.56c0.09-2.31-2-1.51-3.3-1.79c-0.04-0.22-0.08-0.39-0.1-0.56c-0.25-2.05-1.24-2.94-3.32-2.97
			c-0.61-0.01-1.23-0.09-1.82,0.02c-1.39,0.24-2.16-0.26-2.54-1.63c-0.15-0.56-0.18-0.88,0.26-1.28c0.81-0.75,1.6-1.53,2.34-2.34
			c1.08-1.18,1.19-2.68,0.14-3.87c-1.17-1.33-2.44-2.6-3.77-3.77c-1.24-1.09-2.72-0.95-3.94,0.19c-0.52,0.49-1.01,1.01-1.52,1.51
			c-1.32,1.3-1.31,1.28-3.01,0.62c-0.52-0.2-0.69-0.48-0.67-1.02c0.04-1.07,0.03-2.14,0-3.21c-0.05-1.77-1.08-2.91-2.82-3
			c-1.67-0.08-3.34-0.08-5.01,0c-1.75,0.08-2.77,1.23-2.81,3c-0.02,0.86-0.09,1.72,0.02,2.56c0.13,1.06-0.26,1.54-1.26,1.93
			c-0.87,0.34-1.39,0.32-1.99-0.4c-0.61-0.74-1.33-1.4-2.03-2.05c-1.19-1.09-2.66-1.2-3.86-0.13c-1.31,1.15-2.55,2.38-3.7,3.69
			c-1.18,1.35-1.05,2.79,0.21,4.1c0.74,0.77,1.53,1.5,2.25,2.29c0.19,0.21,0.36,0.63,0.29,0.87c-0.56,1.94-0.58,1.94-2.6,1.94
			c-0.36,0-0.71,0-1.07,0c-2.99,0-3.55,0.46-4.16,3.38c-0.01,0.06-0.08,0.11-0.17,0.23c-0.34,0-0.73,0-1.12,0
			c-6.84,0-13.69,0.02-20.53-0.02c-1.49-0.01-2.68,0.45-3.72,1.52c-2.49,2.55-5.02,5.07-7.56,7.57c-0.98,0.96-1.41,2.06-1.41,3.44
			c0.02,15.08,0.01,30.16,0.01,45.25c0,2.8,1.48,4.27,4.3,4.27c7.24,0,14.47,0,21.71,0c0.38,0,0.77,0,1.22,0
			c0.19,1.29-0.35,3.09,1.59,3.15c2.1,0.07,1.52-1.87,1.78-3.15c1.17,0,2.27,0.04,3.37-0.01c0.68-0.03,0.96,0.19,1.2,0.86
			c2.35,6.54,8.76,10.3,15.66,9.25c6.42-0.98,11.5-6.64,11.83-13.18c0.34-6.66-4.07-12.77-10.41-14.43
			c-0.68-0.18-1.37-0.32-2.11-0.48c0-0.53,0-0.99,0-1.45c0-1.93,0.02-3.85-0.02-5.78c-0.02-0.98-0.64-1.55-1.53-1.58
			c-0.87-0.03-1.51,0.54-1.64,1.49c-0.05,0.39-0.03,0.78-0.03,1.17c0,2.03,0,4.05,0,6.07c-8.08,1.72-12.28,6.66-12.69,14.81
			c-0.22,0.02-0.36,0.04-0.5,0.04c-9.8,0-19.61-0.01-29.41,0.01c-0.97,0-1.09-0.45-1.09-1.25c0.01-14.94,0-29.88,0.04-44.82
			c0-0.53,0.29-1.18,0.66-1.56c2.38-2.46,4.8-4.88,7.26-7.26c0.4-0.39,1.1-0.66,1.66-0.67c6.84-0.05,13.69-0.04,20.53-0.04
			c0.35,0,0.69,0,1.05,0c0.07,0.39,0.13,0.66,0.17,0.94c0.27,2.03,1.23,2.88,3.26,2.9c1,0.01,2-0.06,2.99,0.03
			c0.35,0.03,0.72,0.38,0.97,0.68C-81.03-8.71-81-8.3-80.82-8c0.3,0.49,0.19,0.82-0.21,1.2c-0.81,0.75-1.59,1.54-2.34,2.34
			c-1.15,1.23-1.24,2.66-0.15,3.95c0.89,1.06,1.89,2.03,2.87,3.02C-79.42,3.76-78.03,4.5-76.15,3.4z M-98,24.81
			c3.63,0,7.26,0.01,10.89-0.01c1.15,0,1.87-0.66,1.87-1.61c-0.01-0.94-0.74-1.57-1.89-1.62c-0.18-0.01-0.36,0-0.53,0
			c-6.87,0-13.74,0-20.61,0c-0.36,0-0.72-0.02-1.06,0.04c-0.98,0.18-1.56,1.03-1.32,1.96c0.25,0.95,0.95,1.23,1.87,1.23
			C-105.19,24.8-101.59,24.81-98,24.81z M-98.01,1.49c3.27,0,6.55,0,9.82,0c0.46,0,0.93,0.02,1.39-0.02
			c0.92-0.07,1.59-0.74,1.55-1.58c-0.04-0.9-0.56-1.44-1.44-1.6c-0.28-0.05-0.57-0.03-0.85-0.03c-6.98,0-13.95,0-20.93,0.01
			c-0.42,0-0.99-0.05-1.23,0.19c-0.43,0.42-0.96,1.08-0.91,1.58c0.05,0.5,0.7,1.01,1.19,1.39c0.23,0.18,0.69,0.07,1.04,0.07
			C-104.92,1.49-101.47,1.49-98.01,1.49z M-97.92,13.8c-3.6,0-7.19-0.01-10.79,0c-1.31,0-1.97,0.54-1.99,1.56
			c-0.02,1.06,0.69,1.66,2.02,1.66c7.12,0.01,14.24,0.01,21.36,0c1.3,0,2.08-0.64,2.07-1.64c-0.01-1.01-0.76-1.58-2.1-1.59
			C-90.87,13.79-94.39,13.79-97.92,13.8z M-97.93,6.06c-3.45,0-6.9,0-10.36,0c-0.36,0-0.72-0.01-1.07,0.04
			c-0.8,0.13-1.27,0.61-1.33,1.43c-0.06,0.86,0.34,1.45,1.18,1.66c0.41,0.1,0.85,0.1,1.27,0.1c5.05,0.01,10.11,0,15.16,0
			c1.78,0,3.56,0,5.34,0c0.25,0,0.5,0.01,0.75-0.01c1.06-0.09,1.76-0.76,1.74-1.65c-0.02-0.9-0.72-1.56-1.8-1.56
			C-90.67,6.05-94.3,6.06-97.93,6.06z M-104.07,29.38c-1.6,0-3.2-0.02-4.8,0.01c-1.16,0.02-1.78,0.56-1.82,1.51
			c-0.04,0.99,0.61,1.69,1.76,1.7c3.2,0.03,6.4,0.03,9.61,0c1.15-0.01,1.81-0.7,1.77-1.7c-0.04-0.95-0.66-1.5-1.82-1.52
			C-100.94,29.36-102.51,29.38-104.07,29.38z M-90.62,61.62c-0.17-0.23-0.48-0.68-0.83-1.09c-0.34-0.39-0.77-0.71-1.07-1.13
			c-0.59-0.83-1.39-1.11-2.19-0.67c-0.74,0.4-1.04,1.25-0.68,2.11c0.49,1.15,1.31,2.02,2.48,2.51
			C-91.78,63.82-90.63,63.09-90.62,61.62z M-32.71-12.11c-0.41-0.92-0.72-1.9-1.24-2.75c-0.51-0.83-1.51-0.93-2.24-0.42
			c-0.71,0.5-0.84,1.31-0.42,2.18c0.21,0.43,0.39,0.9,0.46,1.38c0.19,1.16,0.81,1.8,1.77,1.71C-33.42-10.1-32.9-10.83-32.71-12.11z
			 M-32.97-4.98c0,0,0.01,0,0.01,0c0-0.5,0.05-1-0.01-1.49c-0.09-0.81-0.59-1.28-1.4-1.34c-0.85-0.07-1.55,0.32-1.64,1.17
			c-0.12,1.12-0.11,2.27,0.01,3.38c0.09,0.8,0.77,1.19,1.56,1.15c0.79-0.03,1.35-0.46,1.47-1.28C-32.91-3.91-32.97-4.45-32.97-4.98z
			 M-32.96,3c0,0,0.01,0,0.01,0c0-0.5,0.04-1-0.01-1.49c-0.09-0.86-0.6-1.35-1.46-1.4c-0.86-0.05-1.52,0.36-1.61,1.21
			c-0.11,1.08-0.11,2.2,0.01,3.28c0.09,0.86,0.78,1.26,1.62,1.21c0.79-0.05,1.33-0.5,1.43-1.32C-32.91,4-32.96,3.49-32.96,3z
			 M-95.73,53.49C-95.73,53.49-95.73,53.5-95.73,53.49c-0.01,0.5-0.05,1,0,1.49c0.09,0.86,0.65,1.36,1.48,1.4
			c0.89,0.04,1.54-0.46,1.62-1.36c0.09-1.02,0.08-2.06-0.01-3.08c-0.08-0.85-0.7-1.31-1.56-1.29c-0.85,0.02-1.4,0.49-1.52,1.35
			C-95.78,52.5-95.73,53-95.73,53.49z M-85.7,63.72C-85.7,63.73-85.7,63.73-85.7,63.72c0.53,0.01,1.07,0.06,1.59,0
			c0.81-0.09,1.27-0.61,1.33-1.41c0.06-0.85-0.33-1.54-1.18-1.63c-1.12-0.12-2.26-0.11-3.38,0.01c-0.8,0.09-1.17,0.76-1.13,1.56
			c0.04,0.8,0.47,1.34,1.28,1.46C-86.7,63.78-86.2,63.72-85.7,63.72z M-77.79,63.72C-77.79,63.73-77.79,63.73-77.79,63.72
			c0.53,0.01,1.07,0.06,1.59,0c0.81-0.09,1.27-0.61,1.33-1.41c0.06-0.85-0.33-1.54-1.18-1.63c-1.12-0.12-2.26-0.11-3.38,0.01
			c-0.8,0.09-1.17,0.76-1.13,1.56c0.04,0.8,0.47,1.34,1.28,1.46C-78.79,63.78-78.28,63.72-77.79,63.72z M-69.81,63.73
			C-69.81,63.74-69.81,63.74-69.81,63.73c0.5,0,1,0.05,1.49-0.01c0.86-0.09,1.34-0.63,1.38-1.49c0.04-0.86-0.4-1.51-1.24-1.59
			c-1.08-0.1-2.2-0.11-3.28,0.02c-0.85,0.1-1.24,0.79-1.17,1.64c0.06,0.8,0.53,1.31,1.34,1.41C-70.81,63.78-70.3,63.73-69.81,63.73z
			 M-61.95,63.74C-61.95,63.74-61.95,63.73-61.95,63.74c0.53-0.01,1.07,0.04,1.59-0.02c0.81-0.1,1.27-0.62,1.32-1.42
			c0.06-0.85-0.34-1.53-1.19-1.63c-1.08-0.12-2.19-0.12-3.28-0.01c-0.85,0.09-1.27,0.75-1.22,1.6c0.05,0.85,0.53,1.38,1.4,1.47
			C-62.87,63.78-62.41,63.74-61.95,63.74z"/>
		<path d="M-13.53,68.83c-0.79,1.5-2.06,1.92-3.7,1.91c-11.58-0.04-23.16-0.02-34.75-0.02c-2.62,0-3.5-0.9-3.5-3.54
			c0-0.64,0.01-1.28,0-1.92c-0.01-0.75,0.14-1.45-0.81-1.95c-0.83-0.43-0.74-1.87,0.11-2.36c0.66-0.38,0.73-0.84,0.71-1.47
			c-0.02-0.93-0.01-1.85,0-2.78c0.02-2,1.04-3.04,3.03-3.04c5.02-0.01,10.05,0,15.07,0c0.38,0,0.77,0,1.2,0c0-1.11,0-2.09,0-3.22
			c-0.4,0-0.78,0-1.16,0c-4.95,0-9.91,0-14.86,0c-2.3,0-3.27-0.96-3.28-3.22c-0.01-3.56-0.01-7.13,0-10.69c0-2.13,1-3.14,3.14-3.15
			c4.92-0.01,9.84,0,14.75,0c0.42,0,0.85,0,1.36,0c0-1.07,0-2.08,0-3.22c-0.4,0-0.78,0-1.16,0c-4.95,0-9.91,0-14.86,0
			c-2.3,0-3.23-0.94-3.24-3.25c0-3.53-0.01-7.06,0-10.59c0-2.23,0.95-3.19,3.19-3.2c4.99-0.02,9.98-0.01,14.97-0.01
			c0.42,0,0.84,0,1.2,0c0-1.17-0.03-2.23,0.01-3.29c0.04-1.18,0.67-1.83,1.66-1.8c0.96,0.03,1.5,0.65,1.53,1.8
			c0.03,1.03,0.01,2.06,0.01,3.23c0.34,0.02,0.74,0.06,1.15,0.06c4.92,0,9.84,0.04,14.75-0.02c1.64-0.02,2.84,0.48,3.49,2.04
			c0,4.35,0,8.7,0,13.05c-0.69,1.52-1.87,2.02-3.52,1.99c-4.88-0.07-9.76-0.03-14.64-0.02c-0.38,0-0.75,0.03-1.18,0.05
			c0,1.08,0,2.06,0,3.17c0.44,0,0.82,0,1.2,0c4.81,0,9.62,0.04,14.42-0.02c1.64-0.02,2.92,0.39,3.7,1.9c0,4.42,0,8.84,0,13.27
			c-0.73,1.48-1.92,2.07-3.56,1.94c-1.1-0.08-2.21-0.02-3.31-0.02c-1.69,0-2.52-0.6-2.49-1.79c0.02-0.97,0.85-1.48,2.42-1.48
			c1.2,0,2.4,0,3.61,0c0-3.52,0-6.89,0-10.32c-0.32-0.04-0.6-0.1-0.87-0.1c-11.16,0-22.32,0.02-33.48,0.01
			c-0.73,0-0.99,0.21-0.98,0.97c0.04,2.85,0.01,5.7,0.02,8.56c0,0.27,0.06,0.54,0.1,0.88c0.5,0,0.92,0,1.35,0
			c7.2,0,14.4,0,21.61,0.01c1.27,0,2.07,0.6,2.06,1.52c-0.01,1.1-0.78,1.75-2.1,1.76c-1.23,0.01-2.46,0-3.7,0c0,1.15,0,2.14,0,3.22
			c0.45,0,0.83,0,1.22,0c4.85,0,9.7,0.05,14.55-0.03c1.63-0.02,2.82,0.47,3.56,1.94C-13.53,59.99-13.53,64.41-13.53,68.83z
			 M-16.84,16.52c-11.81,0-23.57,0-35.31,0c0,3.49,0,6.86,0,10.29c11.79,0,23.53,0,35.31,0C-16.84,23.34-16.84,19.94-16.84,16.52z"
			/>
		<path class="st12" d="M-13.53,55.57c-0.74-1.47-1.93-1.97-3.56-1.94c-4.85,0.07-9.7,0.03-14.55,0.03c-0.39,0-0.77,0-1.22,0
			c0-1.08,0-2.06,0-3.22c1.24,0,2.47,0.01,3.7,0c1.32-0.01,2.09-0.66,2.1-1.76c0.01-0.92-0.79-1.52-2.06-1.52
			c-7.2-0.01-14.4-0.01-21.61-0.01c-0.42,0-0.85,0-1.35,0c-0.04-0.34-0.1-0.61-0.1-0.88c-0.01-2.85,0.02-5.71-0.02-8.56
			c-0.01-0.76,0.26-0.97,0.98-0.97c11.16,0.01,22.32-0.01,33.48-0.01c0.27,0,0.55,0.06,0.87,0.1c0,3.43,0,6.8,0,10.32
			c-1.22,0-2.41,0-3.61,0c-1.57,0-2.4,0.51-2.42,1.48c-0.02,1.2,0.8,1.79,2.49,1.79c1.11,0,2.22-0.07,3.31,0.02
			c1.64,0.13,2.82-0.47,3.56-1.94C-13.53,50.86-13.53,53.21-13.53,55.57z M-34.61,43.63c3.67,0,7.34,0,11.01,0
			c1.69,0,2.57-0.6,2.55-1.75c-0.01-1.13-0.88-1.71-2.6-1.71c-7.27,0-14.53,0-21.8,0c-0.42,0-0.96-0.08-1.25,0.14
			c-0.51,0.4-1.19,0.98-1.22,1.51c-0.02,0.54,0.59,1.18,1.07,1.62c0.25,0.23,0.81,0.17,1.23,0.17
			C-41.94,43.63-38.28,43.63-34.61,43.63z"/>
		<path class="st12" d="M-13.53,35.24c-0.79-1.51-2.07-1.92-3.7-1.9c-4.81,0.06-9.61,0.02-14.42,0.02c-0.38,0-0.76,0-1.2,0
			c0-1.11,0-2.09,0-3.17c0.42-0.02,0.8-0.05,1.18-0.05c4.88,0,9.76-0.05,14.64,0.02c1.65,0.02,2.83-0.47,3.52-1.99
			C-13.53,30.53-13.53,32.89-13.53,35.24z"/>
		<path d="M-76.15,3.4c-1.89,1.1-3.27,0.36-4.52-0.89c-0.98-0.98-1.98-1.96-2.87-3.02c-1.08-1.29-1-2.72,0.15-3.95
			c0.75-0.81,1.54-1.59,2.34-2.34c0.4-0.38,0.51-0.71,0.21-1.2c-0.18-0.3-0.21-0.71-0.43-0.97c-0.25-0.3-0.62-0.65-0.97-0.68
			c-0.99-0.09-1.99-0.03-2.99-0.03c-2.03-0.01-2.98-0.87-3.26-2.9c-0.04-0.28-0.1-0.56-0.17-0.94c-0.35,0-0.7,0-1.05,0
			c-6.84,0-13.69-0.01-20.53,0.04c-0.56,0-1.26,0.28-1.66,0.67c-2.46,2.37-4.88,4.8-7.26,7.26c-0.37,0.38-0.66,1.03-0.66,1.56
			c-0.03,14.94-0.02,29.88-0.04,44.82c0,0.8,0.12,1.25,1.09,1.25c9.8-0.02,19.61-0.01,29.41-0.01c0.14,0,0.28-0.02,0.5-0.04
			c0.41-8.15,4.62-13.09,12.69-14.81c0-2.02,0-4.04,0-6.07c0-0.39-0.02-0.79,0.03-1.17c0.12-0.95,0.76-1.52,1.64-1.49
			c0.89,0.03,1.51,0.61,1.53,1.58c0.04,1.92,0.02,3.85,0.02,5.78c0,0.46,0,0.92,0,1.45c0.74,0.17,1.43,0.31,2.11,0.48
			c6.34,1.66,10.75,7.77,10.41,14.43c-0.33,6.54-5.41,12.2-11.83,13.18c-6.9,1.05-13.32-2.71-15.66-9.25
			c-0.24-0.66-0.52-0.89-1.2-0.86c-1.1,0.05-2.2,0.01-3.37,0.01c-0.26,1.29,0.32,3.22-1.78,3.15c-1.93-0.06-1.4-1.86-1.59-3.15
			c-0.45,0-0.83,0-1.22,0c-7.24,0-14.47,0-21.71,0c-2.82,0-4.3-1.47-4.3-4.27c0-15.08,0.01-30.16-0.01-45.25
			c0-1.37,0.43-2.48,1.41-3.44c2.54-2.5,5.07-5.01,7.56-7.57c1.04-1.07,2.23-1.52,3.72-1.52c6.84,0.04,13.69,0.02,20.53,0.02
			c0.39,0,0.78,0,1.12,0c0.09-0.11,0.16-0.16,0.17-0.23c0.62-2.92,1.18-3.38,4.16-3.38c0.36,0,0.71,0,1.07,0
			c2.02,0,2.04,0.01,2.6-1.94c0.07-0.25-0.1-0.66-0.29-0.87c-0.72-0.79-1.51-1.52-2.25-2.29c-1.26-1.31-1.39-2.76-0.21-4.1
			c1.15-1.31,2.4-2.54,3.7-3.69c1.21-1.06,2.68-0.95,3.86,0.13c0.71,0.65,1.43,1.31,2.03,2.05c0.6,0.73,1.12,0.74,1.99,0.4
			c1-0.39,1.39-0.87,1.26-1.93c-0.1-0.84-0.04-1.71-0.02-2.56c0.04-1.77,1.06-2.92,2.81-3c1.67-0.08,3.34-0.08,5.01,0
			c1.75,0.08,2.77,1.22,2.82,3c0.03,1.07,0.03,2.14,0,3.21c-0.02,0.54,0.15,0.82,0.67,1.02c1.7,0.66,1.69,0.69,3.01-0.62
			c0.51-0.5,1-1.02,1.52-1.51c1.22-1.15,2.7-1.29,3.94-0.19c1.33,1.17,2.6,2.44,3.77,3.77c1.05,1.19,0.94,2.69-0.14,3.87
			c-0.75,0.81-1.53,1.6-2.34,2.34c-0.44,0.4-0.41,0.72-0.26,1.28c0.38,1.38,1.15,1.87,2.54,1.63c0.59-0.1,1.21-0.02,1.82-0.02
			c2.07,0.03,3.06,0.92,3.32,2.97c0.02,0.17,0.06,0.34,0.1,0.56c1.3,0.28,3.39-0.52,3.3,1.79c-0.08,2.05-1.97,1.31-3.28,1.56
			c-0.05,0.37-0.1,0.75-0.15,1.13c-0.19,1.58-1.25,2.59-2.84,2.64c-0.96,0.03-1.94,0.11-2.88-0.02c-1.05-0.14-1.35,0.4-1.73,1.22
			c-0.41,0.88-0.37,1.46,0.41,2.08c0.69,0.55,1.28,1.23,1.9,1.88c1.19,1.25,1.33,2.76,0.22,4.03c-1.15,1.31-2.39,2.55-3.7,3.7
			c-1.31,1.14-2.75,1.01-4.02-0.2c-0.59-0.56-1.23-1.11-1.73-1.75c-0.7-0.91-1.38-0.99-2.43-0.5c-0.8,0.37-1.05,0.75-1,1.57
			c0.07,0.96,0.04,1.93,0.01,2.89c-0.06,1.68-1,2.79-2.68,2.89c-1.77,0.11-3.56,0.11-5.33-0.01c-1.66-0.11-2.59-1.25-2.63-2.93
			c-0.02-0.96-0.07-1.93,0.01-2.89c0.08-0.87-0.21-1.33-1.06-1.51c-0.37-0.07-0.71-0.27-1.19-0.47c-0.02,0.49-0.06,0.87-0.06,1.24
			c0,3.53-0.01,7.06,0,10.59c0,0.79-0.13,1.51-0.94,1.88c-1.15,0.52-2.25-0.27-2.28-1.68c-0.04-2.53-0.01-5.06-0.01-7.59
			C-76.15,4.35-76.15,3.96-76.15,3.4z M-80.91-2.47c1,0.99,1.75,1.79,2.57,2.5c0.14,0.13,0.67,0.02,0.87-0.16
			c0.72-0.63,1.37-1.35,2.06-2.02c1.24-1.21,2.33-1.39,3.89-0.7c0.62,0.27,1.23,0.56,1.87,0.77c1.53,0.51,2.36,1.52,2.37,3.16
			c0,0.53,0.03,1.07,0.03,1.6c0,2.22,0.3,2.49,2.52,2.27c0.14-0.01,0.28-0.06,0.42-0.06c0.65-0.04,0.94-0.35,0.91-1.03
			c-0.04-0.85-0.02-1.71,0-2.57c0.05-1.63,0.79-2.77,2.37-3.31c0.57-0.19,1.13-0.43,1.68-0.68c1.88-0.85,2.82-0.68,4.31,0.81
			c0.77,0.77,1.55,1.54,2.31,2.3c1.02-0.99,1.92-1.87,2.94-2.87c-0.98-0.94-1.9-1.78-2.77-2.66c-1.01-1.02-1.22-2.2-0.62-3.52
			c0.32-0.71,0.61-1.44,0.89-2.17c0.61-1.55,1.48-2.16,3.17-2.17c1.2-0.01,2.4,0,3.71,0c0-1.18-0.01-2.21,0-3.24
			c0-0.59-0.27-0.82-0.85-0.81c-1.03,0.02-2.07,0.01-3.1-0.02c-1.44-0.05-2.39-0.78-2.9-2.12c-0.26-0.7-0.55-1.39-0.85-2.07
			c-0.7-1.59-0.54-2.62,0.72-3.87c0.83-0.82,1.73-1.57,2.67-2.41c-1.11-1.14-2-2.06-3.03-3.12c-0.73,0.8-1.31,1.47-1.93,2.1
			c-2.01,2.03-2.49,2.11-5.16,0.94c-0.2-0.09-0.39-0.16-0.59-0.24c-2.52-0.95-2.99-1.63-2.99-4.37c0-2.91,0-2.89-2.92-2.71
			c-0.7,0.04-0.93,0.32-0.93,0.98c0,1.07-0.05,2.14-0.09,3.2c-0.04,1.3-0.78,2.1-1.9,2.59c-0.75,0.33-1.52,0.61-2.27,0.94
			c-1.63,0.71-2.63,0.56-3.87-0.7c-0.82-0.83-1.58-1.72-2.44-2.66c-1.1,1.06-1.99,1.92-3.09,2.98c0.62,0.5,1.06,0.87,1.51,1.22
			c2.26,1.74,2.84,3.68,1.42,6.39c-1.3,2.48-1.68,3.02-4.48,3.02c-3,0-3.01,0.03-2.73,3.02c0.06,0.66,0.27,0.96,0.98,0.92
			c1-0.05,2,0,2.99-0.01c1.33-0.02,2.23,0.62,2.74,1.82c0.35,0.82,0.69,1.64,1.03,2.46c0.65,1.53,0.47,2.59-0.73,3.78
			C-79.01-4.11-79.91-3.37-80.91-2.47z M-74.53,30.59c-6.12,0.02-10.87,4.81-10.84,10.94c0.03,5.94,4.9,10.76,10.86,10.75
			c5.93-0.01,10.91-5.04,10.84-10.94C-63.74,35.36-68.59,30.57-74.53,30.59z"/>
		<path d="M-98,24.81c-3.6,0-7.19-0.01-10.79,0.01c-0.91,0-1.62-0.27-1.87-1.23c-0.24-0.93,0.34-1.79,1.32-1.96
			c0.35-0.06,0.71-0.04,1.06-0.04c6.87,0,13.74,0,20.61,0c0.18,0,0.36-0.01,0.53,0c1.14,0.05,1.88,0.68,1.89,1.62
			c0.01,0.95-0.71,1.6-1.87,1.61C-90.74,24.81-94.37,24.81-98,24.81z"/>
		<path d="M-98.01,1.49c-3.45,0-6.91,0-10.36,0c-0.36,0-0.82,0.11-1.04-0.07c-0.49-0.38-1.14-0.88-1.19-1.39
			c-0.05-0.51,0.48-1.16,0.91-1.58c0.24-0.24,0.81-0.18,1.23-0.19c6.98-0.01,13.95-0.01,20.93-0.01c0.28,0,0.58-0.02,0.85,0.03
			c0.88,0.16,1.39,0.7,1.44,1.6c0.04,0.84-0.63,1.5-1.55,1.58c-0.46,0.04-0.92,0.02-1.39,0.02C-91.47,1.49-94.74,1.49-98.01,1.49z"
			/>
		<path d="M-97.92,13.8c3.52,0,7.05,0,10.57,0c1.35,0,2.09,0.58,2.1,1.59c0.01,1-0.77,1.64-2.07,1.64c-7.12,0.01-14.24,0.01-21.36,0
			c-1.33,0-2.04-0.61-2.02-1.66c0.02-1.02,0.68-1.56,1.99-1.56C-105.11,13.79-101.51,13.8-97.92,13.8z"/>
		<path d="M-97.93,6.06c3.63,0,7.26-0.01,10.89,0.01c1.08,0.01,1.78,0.66,1.8,1.56c0.02,0.9-0.68,1.57-1.74,1.65
			c-0.25,0.02-0.5,0.01-0.75,0.01c-1.78,0-3.56,0-5.34,0c-5.05,0-10.11,0-15.16,0c-0.42,0-0.86,0-1.27-0.1
			c-0.84-0.21-1.24-0.8-1.18-1.66c0.06-0.82,0.53-1.3,1.33-1.43c0.35-0.05,0.71-0.04,1.07-0.04C-104.84,6.06-101.39,6.06-97.93,6.06
			z"/>
		<path d="M-104.07,29.38c1.57,0,3.13-0.02,4.7,0.01c1.16,0.02,1.78,0.56,1.82,1.52c0.04,0.99-0.61,1.69-1.77,1.7
			c-3.2,0.03-6.4,0.03-9.61,0c-1.15-0.01-1.81-0.7-1.76-1.7c0.04-0.95,0.66-1.5,1.82-1.51C-107.27,29.36-105.67,29.38-104.07,29.38z
			"/>
		<path d="M-90.62,61.62c-0.02,1.47-1.16,2.2-2.29,1.73c-1.17-0.49-1.99-1.35-2.48-2.51c-0.37-0.86-0.07-1.71,0.68-2.11
			c0.8-0.43,1.61-0.16,2.19,0.67c0.3,0.42,0.73,0.74,1.07,1.13C-91.1,60.94-90.79,61.39-90.62,61.62z"/>
		<path d="M-32.71-12.11c-0.19,1.28-0.72,2.01-1.66,2.09c-0.95,0.09-1.57-0.55-1.77-1.71c-0.08-0.47-0.25-0.94-0.46-1.38
			c-0.42-0.87-0.29-1.68,0.42-2.18c0.72-0.51,1.73-0.4,2.24,0.42C-33.43-14-33.11-13.03-32.71-12.11z"/>
		<path d="M-32.97-4.98c0,0.53,0.06,1.07-0.01,1.59c-0.11,0.82-0.68,1.25-1.47,1.28c-0.79,0.03-1.47-0.35-1.56-1.15
			c-0.12-1.12-0.13-2.27-0.01-3.38c0.09-0.85,0.79-1.23,1.64-1.17c0.81,0.06,1.31,0.53,1.4,1.34c0.06,0.49,0.01,0.99,0.01,1.49
			C-32.96-4.98-32.96-4.98-32.97-4.98z"/>
		<path d="M-32.96,3c0,0.5,0.05,1-0.01,1.49c-0.1,0.82-0.64,1.27-1.43,1.32c-0.84,0.05-1.53-0.35-1.62-1.21
			c-0.12-1.08-0.12-2.2-0.01-3.28c0.09-0.85,0.75-1.26,1.61-1.21c0.86,0.05,1.37,0.54,1.46,1.4C-32.91,2-32.95,2.5-32.95,3
			C-32.95,3-32.95,3-32.96,3z"/>
		<path d="M-95.73,53.49c0-0.5-0.05-1,0.01-1.49c0.11-0.86,0.66-1.33,1.52-1.35c0.86-0.02,1.47,0.44,1.56,1.29
			c0.1,1.02,0.1,2.06,0.01,3.08c-0.08,0.9-0.73,1.4-1.62,1.36c-0.83-0.04-1.39-0.54-1.48-1.4C-95.78,54.49-95.73,53.99-95.73,53.49
			C-95.73,53.5-95.73,53.49-95.73,53.49z"/>
		<path d="M-85.7,63.72c-0.5,0-1,0.06-1.49-0.01c-0.81-0.11-1.25-0.65-1.28-1.46c-0.04-0.8,0.34-1.47,1.13-1.56
			c1.12-0.13,2.26-0.13,3.38-0.01c0.85,0.09,1.24,0.78,1.18,1.63c-0.06,0.8-0.52,1.32-1.33,1.41
			C-84.63,63.78-85.17,63.73-85.7,63.72C-85.7,63.73-85.7,63.73-85.7,63.72z"/>
		<path d="M-77.79,63.72c-0.5,0-1,0.06-1.49-0.01c-0.81-0.11-1.25-0.65-1.28-1.46c-0.04-0.8,0.34-1.47,1.13-1.56
			c1.12-0.13,2.26-0.13,3.38-0.01c0.85,0.09,1.24,0.78,1.18,1.63c-0.06,0.8-0.52,1.32-1.33,1.41
			C-76.72,63.78-77.26,63.73-77.79,63.72C-77.79,63.73-77.79,63.73-77.79,63.72z"/>
		<path d="M-69.81,63.73c-0.5,0-1,0.05-1.49-0.01c-0.81-0.09-1.28-0.6-1.34-1.41c-0.07-0.85,0.32-1.54,1.17-1.64
			c1.08-0.13,2.19-0.13,3.28-0.02c0.85,0.08,1.28,0.73,1.24,1.59c-0.04,0.85-0.51,1.39-1.38,1.49
			C-68.81,63.78-69.31,63.74-69.81,63.73C-69.81,63.74-69.81,63.74-69.81,63.73z"/>
		<path d="M-61.95,63.74c-0.46,0-0.93,0.04-1.38-0.01c-0.87-0.09-1.35-0.62-1.4-1.47c-0.05-0.85,0.37-1.52,1.22-1.6
			c1.08-0.11,2.2-0.11,3.28,0.01c0.85,0.1,1.25,0.78,1.19,1.63c-0.06,0.8-0.51,1.33-1.32,1.42C-60.88,63.78-61.42,63.73-61.95,63.74
			C-61.95,63.73-61.95,63.74-61.95,63.74z"/>
		<path class="st12" d="M-16.84,16.52c0,3.42,0,6.82,0,10.29c-11.78,0-23.51,0-35.31,0c0-3.43,0-6.8,0-10.29
			C-40.41,16.52-28.65,16.52-16.84,16.52z M-34.53,23.3c3.88,0,7.76,0.01,11.64-0.01c1.1-0.01,1.81-0.73,1.79-1.7
			c-0.03-0.94-0.71-1.55-1.77-1.59c-0.28-0.01-0.57,0-0.85,0c-6.51,0-13.03,0-19.54,0c-1.03,0-2.07-0.03-3.1,0.02
			c-0.9,0.04-1.59,0.73-1.58,1.56c0.01,0.88,0.48,1.48,1.35,1.68c0.31,0.07,0.64,0.04,0.96,0.04C-41.93,23.3-38.23,23.3-34.53,23.3z
			"/>
		<path d="M-34.61,43.63c-3.67,0-7.34,0-11.01-0.01c-0.42,0-0.98,0.06-1.23-0.17c-0.48-0.44-1.09-1.09-1.07-1.62
			c0.02-0.53,0.7-1.11,1.22-1.51c0.28-0.22,0.82-0.14,1.25-0.14c7.27-0.01,14.53-0.01,21.8,0c1.72,0,2.59,0.57,2.6,1.71
			c0.01,1.15-0.86,1.75-2.55,1.75C-27.27,43.63-30.94,43.63-34.61,43.63z"/>
		<path class="st12" d="M-80.91-2.47c1-0.9,1.9-1.65,2.74-2.47c1.2-1.19,1.38-2.25,0.73-3.78c-0.35-0.82-0.68-1.64-1.03-2.46
			c-0.52-1.2-1.41-1.83-2.74-1.82c-1,0.01-2-0.03-2.99,0.01c-0.7,0.03-0.91-0.26-0.98-0.92c-0.28-2.98-0.27-3.02,2.73-3.02
			c2.8,0,3.18-0.54,4.48-3.02c1.42-2.72,0.84-4.66-1.42-6.39c-0.45-0.35-0.89-0.72-1.51-1.22c1.1-1.06,2-1.92,3.09-2.98
			c0.85,0.94,1.61,1.83,2.44,2.66c1.24,1.25,2.24,1.4,3.87,0.7c0.75-0.32,1.52-0.61,2.27-0.94c1.12-0.5,1.86-1.29,1.9-2.59
			c0.03-1.07,0.09-2.14,0.09-3.2c0-0.66,0.23-0.94,0.93-0.98c2.92-0.18,2.92-0.2,2.92,2.71c0,2.74,0.47,3.42,2.99,4.37
			c0.2,0.08,0.4,0.15,0.59,0.24c2.66,1.17,3.14,1.09,5.16-0.94c0.63-0.63,1.21-1.31,1.93-2.1c1.02,1.05,1.92,1.98,3.03,3.12
			c-0.94,0.84-1.84,1.59-2.67,2.41c-1.26,1.25-1.42,2.27-0.72,3.87c0.3,0.68,0.59,1.37,0.85,2.07c0.51,1.35,1.46,2.08,2.9,2.12
			c1.03,0.03,2.07,0.04,3.1,0.02c0.58-0.01,0.86,0.22,0.85,0.81c-0.01,1.03,0,2.05,0,3.24c-1.31,0-2.51,0-3.71,0
			c-1.69,0.01-2.56,0.62-3.17,2.17c-0.28,0.73-0.57,1.46-0.89,2.17c-0.6,1.32-0.39,2.51,0.62,3.52c0.87,0.88,1.79,1.72,2.77,2.66
			c-1.02,1-1.92,1.88-2.94,2.87c-0.76-0.76-1.54-1.53-2.31-2.3c-1.49-1.48-2.43-1.65-4.31-0.81c-0.55,0.25-1.11,0.48-1.68,0.68
			c-1.59,0.54-2.32,1.68-2.37,3.31c-0.03,0.85-0.04,1.71,0,2.57c0.03,0.68-0.26,0.99-0.91,1.03c-0.14,0.01-0.28,0.05-0.42,0.06
			c-2.22,0.22-2.52-0.05-2.52-2.27c0-0.53-0.03-1.07-0.03-1.6c-0.01-1.64-0.84-2.65-2.37-3.16c-0.64-0.21-1.25-0.5-1.87-0.77
			c-1.56-0.69-2.65-0.51-3.89,0.7c-0.69,0.67-1.34,1.39-2.06,2.02c-0.2,0.17-0.72,0.28-0.87,0.16C-79.16-0.68-79.91-1.48-80.91-2.47
			z M-65.27-3.62c8.05-0.02,13.56-8.16,10.57-15.58c-0.39-0.97-0.98-1.52-2.09-1.43c-0.26,0.02-0.59-0.14-0.79-0.32
			c-0.77-0.68-1.52-1.39-2.23-2.13c-0.19-0.19-0.34-0.51-0.33-0.77c0.01-1-0.46-1.6-1.37-1.92c-2.69-0.94-5.4-0.9-8.03,0.13
			c-4.79,1.88-8,6.77-7.07,12.44C-75.66-7.41-71.02-3.61-65.27-3.62z"/>
		<path class="st12" d="M-74.53,30.59c5.94-0.02,10.79,4.78,10.86,10.76c0.07,5.9-4.91,10.93-10.84,10.94
			c-5.96,0.01-10.83-4.82-10.86-10.75C-85.4,35.4-80.65,30.61-74.53,30.59z M-75.38,42.62c-1.2-1.22-2.3-2.38-3.43-3.5
			c-0.92-0.91-1.87-0.97-2.62-0.24c-0.74,0.73-0.68,1.73,0.21,2.63c1.45,1.47,2.92,2.92,4.39,4.36c1.07,1.05,1.87,1.06,2.94,0.01
			c1.55-1.52,3.07-3.06,4.6-4.6c0.55-0.55,1.13-1.08,1.64-1.68c0.65-0.76,0.6-1.65-0.05-2.31c-0.62-0.62-1.58-0.66-2.32-0.06
			c-0.3,0.25-0.57,0.54-0.84,0.82C-72.33,39.55-73.8,41.03-75.38,42.62z"/>
		<path d="M-34.53,23.3c-3.7,0-7.4,0-11.11,0c-0.32,0-0.65,0.03-0.96-0.04c-0.88-0.2-1.34-0.8-1.35-1.68
			c-0.01-0.84,0.68-1.53,1.58-1.56c1.03-0.04,2.06-0.02,3.1-0.02c6.51,0,13.03,0,19.54,0c0.28,0,0.57-0.01,0.85,0
			c1.07,0.04,1.75,0.66,1.77,1.59c0.03,0.97-0.69,1.69-1.79,1.7C-26.77,23.31-30.65,23.3-34.53,23.3z"/>
		<path d="M-65.27-3.62c-5.75,0.01-10.39-3.79-11.34-9.58c-0.93-5.67,2.28-10.57,7.07-12.44c2.64-1.03,5.34-1.08,8.03-0.13
			c0.91,0.32,1.38,0.93,1.37,1.92c0,0.26,0.15,0.58,0.33,0.77c0.72,0.74,1.46,1.44,2.23,2.13c0.2,0.18,0.54,0.34,0.79,0.32
			c1.11-0.09,1.7,0.46,2.09,1.43C-51.71-11.78-57.23-3.64-65.27-3.62z M-63.57-14.99c0.01-0.99-0.73-1.76-1.72-1.77
			c-0.99-0.01-1.75,0.73-1.76,1.72c-0.01,1,0.72,1.76,1.71,1.77C-64.34-13.26-63.58-13.99-63.57-14.99z"/>
		<path d="M-75.38,42.62c1.58-1.59,3.05-3.07,4.52-4.55c0.28-0.28,0.54-0.57,0.84-0.82c0.73-0.6,1.7-0.57,2.32,0.06
			c0.65,0.66,0.7,1.54,0.05,2.31c-0.51,0.59-1.09,1.12-1.64,1.68c-1.53,1.54-3.06,3.08-4.6,4.6c-1.07,1.05-1.87,1.04-2.94-0.01
			c-1.47-1.45-2.94-2.9-4.39-4.36c-0.89-0.9-0.95-1.9-0.21-2.63c0.74-0.74,1.7-0.67,2.62,0.24C-77.68,40.24-76.58,41.39-75.38,42.62
			z"/>
		<path class="st12" d="M-63.57-14.99c-0.01,0.99-0.77,1.73-1.77,1.72c-0.99-0.01-1.73-0.77-1.71-1.77
			c0.01-0.99,0.77-1.74,1.76-1.72C-64.3-16.74-63.56-15.97-63.57-14.99z"/>
	</g>
</g>
</svg>
